    <svg xmlns="http://www.w3.org/2000/svg" viewBox="0 0 1974.5 310.15">
      <path
        fill="#201d1c"
        d="M3748.3 1624.4c-238.45 0-360.28-187.68-360.28-470.41 0-267.26 131.74-467.84 360.28-467.84 258.45 0 355.34 236.51 355.34 467.84-.18 241.57-121.95 470.41-355.42 470.41m-633.5 701.66h283.24v-678.52h5.01c77.02 128.48 238.52 208.19 382.64 208.19 404.94 0 601.3-318.83 601.3-706.97 0-357.17-173.9-693.89-554.12-693.89-173.94 0-360.29 43.602-444.79 218.43h-4.92V490.73H3114.7v1835.3l.02.04M5368.9 938.06c0-185.04-193.83-251.94-318.05-251.94-99.43 0-260.98 38.688-260.98 169.7 0 154.27 109.38 200.57 231.18 221.15 124.18 23.11 260.86 20.47 347.85 79.59zM6581 1855.78c-168.96 0-315.58-89.95-400.08-236.55l-4.95 5.22v195.3h-268.35V687.95c-161.55-1.832-176.6-1.832-188.92-1.832-52.16 0-67.11 28.282-67.11 100.26v683.8c0 280.09-263.35 385.57-514.39 385.57-283.26 0-563.98-100.21-583.79-442.17h283.19c12.47 143.96 124.21 210.84 283.25 210.84 114.28 0 265.87-28.36 265.87-179.98 0-172.21-181.39-149.05-385.14-187.68-238.53-28.18-494.43-82.31-494.43-413.73 0-259.7 208.68-388.14 439.73-388.14 151.6 0 332.95 48.844 444.83 161.74 22.27-120.72 104.36-161.74 218.63-161.74 47.2 0 136.63 17.934 579.75 33.352v2.621h1.76v783.86c0 195.42 121.78 349.66 310.58 349.66 166.47 0 246.05-90.01 250.96-298.17v-835.39h283.37v912.46c.55 298.13-175.95 452.43-454.3 452.43M7860.9 686.15c253.41 0 360.31 239.09 360.31 470.48 0 292.91-136.64 467.82-355.35 467.82-265.88 0-360.32-244.22-360.32-483.22 0-228.79 109.29-455.03 355.41-455.03m633.54-195.35H8226.1v179.92h-4.91c-74.52-151.66-236.13-215.85-397.6-215.85-404.94 0-601.29 311.04-601.29 709.38 0 480.66 275.84 691.44 556.65 691.44 161.43 0 340.29-61.73 427.28-208.15h5.05v678.46h283.22V490.85l-.01.043M9620.1 1375c-22.39 161.94-136.66 249.39-293.18 249.39-146.68 0-352.86-79.73-352.86-483.29 0-221.08 94.38-455.02 340.42-455.02 163.96 0 278.22 113.23 305.62 303.46h283.23c-52.19-344.44-258.37-534.66-588.85-534.66-402.55 0-623.67 295.52-623.67 686.22 0 400.96 211.2 714.56 633.6 714.56 298.15 0 551.67-154.21 578.92-480.67h-282.77l-.46.01M10878 938.06c0-185.04-193.8-251.94-318.1-251.94-99.3 0-260.8 38.688-260.8 169.7 0 154.27 109.4 200.57 231 221.15 124.3 23.11 261 20.47 347.9 79.59zm1973 917.72c-186.4 0-308.1-84.87-402.5-221.07-57.2 151.58-203.8 221.07-360.4 221.07-203.7 0-310.6-89.95-395-221.07h-7.5v185.04h-268.5V687.95c-161.5-1.832-176.5-1.832-189-1.832-52.1 0-67 28.282-67 100.26v683.8c0 280.09-263.3 385.57-514.4 385.57-283.2 0-564-100.21-583.9-442.17h283.3c12.4 143.96 124.3 210.84 283.3 210.84 114.3 0 265.8-28.36 265.8-179.98 0-172.21-181.4-149.05-385.1-187.68-238.6-28.18-494.5-82.31-494.5-413.73 0-259.7 208.7-388.14 439.8-388.14 151.6 0 332.9 48.844 444.8 161.74 22.3-120.72 104.3-161.74 218.7-161.74 47.1 0 136.6 17.934 575.7 33.352v2.621h5.8v789.04c0 221.04 134.2 344.48 280.8 344.48 171.4 0 226.1-97.62 226.1-280.26v-853.3h283.2v778.8c0 223.67 82 354.74 273.4 354.74 221.1 0 233.5-146.5 233.5-357.36v-776.17h283.3v917.57c.1 323.94-158.8 447.31-429.5 447.31M14170 1624.4c-238.5 0-360.3-187.68-360.3-470.41 0-267.26 131.7-467.84 360.3-467.84 258.4 0 355.4 236.51 355.4 467.84 0 241.57-122 470.41-355.4 470.41m-633.6 195.3h268.4v-179.92h5c79.5 151.6 233.5 215.95 397.5 215.95 405 0 601.3-318.83 601.3-706.97 0-357.17-173.9-693.89-554-693.89-164 0-340.5 61.66-429.9 208.07h-5V-.05h-283.3v1819.8"
        transform="matrix(1.3333 0 0 -1.3333 0 310.15) scale(.1)"
      ></path>
      <path
        fill="#6399a8"
        d="M2124.5 494.77H0l992.09 1831.3h2124.5l-992.11-1831.3"
        transform="matrix(1.3333 0 0 -1.3333 0 310.15) scale(.1)"
      ></path>
    </svg>