<svg width="200" height="200" viewBox="0 0 200 200" fill="none" xmlns="http://www.w3.org/2000/svg">
<rect width="200" height="200" rx="100" fill="#626263"/>
<path fill-rule="evenodd" clip-rule="evenodd" d="M74.1782 75.521C72.7067 70.1843 72.1978 64.5795 72.4046 59.0152C72.6581 52.2981 74.3058 45.4543 77.4428 39.4659C79.7876 34.9984 85.3961 25.0177 91.6067 29.8971C94.5219 32.2101 95.7577 35.8855 96.8667 39.2758C98.0391 42.8561 99.0531 46.4998 99.9086 50.1753C101.111 55.3865 102.022 60.6359 102.65 65.9312C102.731 65.8366 102.824 65.7324 102.824 65.7324C103.362 65.1304 103.869 64.465 104.313 63.7679C104.567 63.3877 104.82 62.9758 105.042 62.5956C105.111 62.4573 105.381 61.9501 105.365 61.9889C106.049 60.63 106.605 59.2206 107.133 57.8112C107.418 57.0191 107.704 56.227 107.957 55.4032C108.02 55.1814 108.092 54.9596 108.163 54.7378C108.234 54.516 108.306 54.2942 108.369 54.0725C108.319 54.2045 108.21 54.5432 108.174 54.6533C108.197 54.5832 108.255 54.4008 108.369 54.0408C109.003 51.9654 109.644 49.8822 110.286 47.799C110.928 45.7157 111.569 43.6324 112.203 41.5571C112.426 40.8391 112.636 40.0939 112.849 39.337C113.849 35.7848 114.922 31.9777 117.716 29.5486C120.188 27.4257 123.737 27.6158 126.399 29.3268C129.757 31.4814 131.468 35.5053 132.419 39.2124C134.447 47.3236 135.176 55.9735 135.429 64.3383C135.651 72.5446 135.619 81.2895 133.528 89.274C131.69 96.3397 128.015 102.423 122.279 106.986C111.474 115.636 96.0745 117.093 83.3365 112.277C76.7774 109.774 71.2956 105.085 69.6796 97.9873C68.4755 92.6643 68.8874 87.1828 70.7886 82.0816C71.6535 79.7754 72.8529 77.6031 74.1782 75.521ZM112.108 92.6642C113.185 92.6642 113.914 91.3335 114.262 90.5414C114.896 89.0522 115.118 87.0877 115.055 85.5035C114.96 83.6975 114.548 78.4695 111.791 78.4695C110.714 78.4695 109.985 79.8003 109.636 80.5924C109.003 82.0816 108.781 84.046 108.844 85.6302C108.907 87.4363 109.351 92.6642 112.108 92.6642ZM102.412 92.8227C102.063 93.6148 101.335 94.9455 100.257 94.9455C97.5005 94.9455 97.0569 89.7176 96.9935 87.9116C96.9301 86.3273 97.1519 84.3629 97.7857 82.8737C98.1342 82.0816 98.863 80.7509 99.9403 80.7509C102.697 80.7509 103.109 85.9788 103.204 87.7848C103.267 89.3691 103.046 91.3335 102.412 92.8227Z" fill="#AFAFAF"/>
<path d="M67.3602 129.49V144H65.8102C65.5768 144 65.3802 143.963 65.2202 143.89C65.0602 143.81 64.9035 143.677 64.7502 143.49L57.5202 134.29C57.5402 134.523 57.5535 134.753 57.5602 134.98C57.5735 135.207 57.5802 135.417 57.5802 135.61V144H54.9302V129.49H56.5102C56.6368 129.49 56.7435 129.497 56.8302 129.51C56.9235 129.517 57.0068 129.54 57.0802 129.58C57.1535 129.613 57.2235 129.66 57.2902 129.72C57.3568 129.78 57.4302 129.86 57.5102 129.96L64.7902 139.2C64.7635 138.947 64.7435 138.703 64.7302 138.47C64.7168 138.23 64.7102 138.003 64.7102 137.79V129.49H67.3602ZM84.4189 136.74C84.4189 137.8 84.2389 138.783 83.8789 139.69C83.5256 140.597 83.0222 141.38 82.3689 142.04C81.7222 142.7 80.9422 143.22 80.0289 143.6C79.1156 143.973 78.1022 144.16 76.9889 144.16C75.8756 144.16 74.8622 143.973 73.9489 143.6C73.0356 143.22 72.2522 142.7 71.5989 142.04C70.9456 141.38 70.4389 140.597 70.0789 139.69C69.7256 138.783 69.5489 137.8 69.5489 136.74C69.5489 135.68 69.7256 134.7 70.0789 133.8C70.4389 132.893 70.9456 132.11 71.5989 131.45C72.2522 130.79 73.0356 130.273 73.9489 129.9C74.8622 129.52 75.8756 129.33 76.9889 129.33C78.1022 129.33 79.1156 129.52 80.0289 129.9C80.9422 130.273 81.7222 130.793 82.3689 131.46C83.0222 132.12 83.5256 132.903 83.8789 133.81C84.2389 134.71 84.4189 135.687 84.4189 136.74ZM81.3489 136.74C81.3489 135.98 81.2489 135.3 81.0489 134.7C80.8489 134.093 80.5589 133.58 80.1789 133.16C79.8056 132.733 79.3489 132.41 78.8089 132.19C78.2756 131.963 77.6689 131.85 76.9889 131.85C76.3089 131.85 75.6989 131.963 75.1589 132.19C74.6189 132.41 74.1589 132.733 73.7789 133.16C73.4056 133.58 73.1189 134.093 72.9189 134.7C72.7189 135.3 72.6189 135.98 72.6189 136.74C72.6189 137.507 72.7189 138.193 72.9189 138.8C73.1189 139.4 73.4056 139.91 73.7789 140.33C74.1589 140.75 74.6189 141.073 75.1589 141.3C75.6989 141.52 76.3089 141.63 76.9889 141.63C77.6689 141.63 78.2756 141.52 78.8089 141.3C79.3489 141.073 79.8056 140.75 80.1789 140.33C80.5589 139.91 80.8489 139.4 81.0489 138.8C81.2489 138.193 81.3489 137.507 81.3489 136.74ZM96.9259 141.7C97.4059 141.7 97.7993 141.643 98.1059 141.53C98.4193 141.41 98.6693 141.253 98.8559 141.06C99.0426 140.867 99.1726 140.647 99.2459 140.4C99.3193 140.147 99.3559 139.887 99.3559 139.62C99.3559 139.327 99.3126 139.063 99.2259 138.83C99.1393 138.597 98.9993 138.4 98.8059 138.24C98.6126 138.073 98.3593 137.947 98.0459 137.86C97.7393 137.773 97.3593 137.73 96.9059 137.73H94.3559V141.7H96.9259ZM94.3559 131.77V135.69H96.3259C96.7459 135.69 97.1193 135.657 97.4459 135.59C97.7726 135.517 98.0459 135.403 98.2659 135.25C98.4859 135.097 98.6526 134.897 98.7659 134.65C98.8859 134.397 98.9459 134.093 98.9459 133.74C98.9459 133.38 98.8959 133.073 98.7959 132.82C98.7026 132.567 98.5559 132.363 98.3559 132.21C98.1559 132.057 97.9026 131.947 97.5959 131.88C97.2893 131.807 96.9259 131.77 96.5059 131.77H94.3559ZM96.5059 129.49C97.4793 129.49 98.3093 129.583 98.9959 129.77C99.6893 129.95 100.253 130.21 100.686 130.55C101.126 130.883 101.446 131.29 101.646 131.77C101.846 132.25 101.946 132.787 101.946 133.38C101.946 133.713 101.896 134.033 101.796 134.34C101.703 134.647 101.553 134.937 101.346 135.21C101.146 135.477 100.886 135.72 100.566 135.94C100.246 136.16 99.8659 136.347 99.4259 136.5C100.413 136.733 101.143 137.113 101.616 137.64C102.089 138.167 102.326 138.85 102.326 139.69C102.326 140.303 102.206 140.873 101.966 141.4C101.733 141.927 101.389 142.383 100.936 142.77C100.483 143.157 99.9226 143.46 99.2559 143.68C98.5959 143.893 97.8359 144 96.9759 144H91.3559V129.49H96.5059ZM112.043 138.49L110.473 134.05C110.38 133.817 110.28 133.543 110.173 133.23C110.073 132.917 109.977 132.577 109.883 132.21C109.79 132.583 109.69 132.93 109.583 133.25C109.483 133.563 109.387 133.837 109.293 134.07L107.733 138.49H112.043ZM117.083 144H114.753C114.493 144 114.28 143.94 114.113 143.82C113.953 143.693 113.833 143.533 113.753 143.34L112.773 140.57H106.993L106.013 143.34C105.947 143.507 105.83 143.66 105.663 143.8C105.497 143.933 105.287 144 105.033 144H102.683L108.353 129.49H111.423L117.083 144ZM130.856 129.49V144H129.306C129.073 144 128.876 143.963 128.716 143.89C128.556 143.81 128.4 143.677 128.246 143.49L121.016 134.29C121.036 134.523 121.05 134.753 121.056 134.98C121.07 135.207 121.076 135.417 121.076 135.61V144H118.426V129.49H120.006C120.133 129.49 120.24 129.497 120.326 129.51C120.42 129.517 120.503 129.54 120.576 129.58C120.65 129.613 120.72 129.66 120.786 129.72C120.853 129.78 120.926 129.86 121.006 129.96L128.286 139.2C128.26 138.947 128.24 138.703 128.226 138.47C128.213 138.23 128.206 138.003 128.206 137.79V129.49H130.856ZM146.905 136.74C146.905 137.8 146.725 138.777 146.365 139.67C146.012 140.557 145.508 141.32 144.855 141.96C144.208 142.6 143.428 143.1 142.515 143.46C141.602 143.82 140.588 144 139.475 144H133.895V129.49H139.475C140.588 129.49 141.602 129.67 142.515 130.03C143.428 130.39 144.208 130.893 144.855 131.54C145.508 132.18 146.012 132.943 146.365 133.83C146.725 134.717 146.905 135.687 146.905 136.74ZM143.825 136.74C143.825 135.98 143.725 135.297 143.525 134.69C143.325 134.083 143.038 133.57 142.665 133.15C142.292 132.73 141.835 132.407 141.295 132.18C140.762 131.953 140.155 131.84 139.475 131.84H136.915V141.65H139.475C140.155 141.65 140.762 141.54 141.295 141.32C141.835 141.093 142.292 140.77 142.665 140.35C143.038 139.923 143.325 139.407 143.525 138.8C143.725 138.193 143.825 137.507 143.825 136.74ZM71.0997 160.71C72.0397 160.71 72.7264 160.483 73.1597 160.03C73.5997 159.577 73.8197 158.957 73.8197 158.17C73.8197 157.81 73.763 157.483 73.6497 157.19C73.543 156.89 73.3764 156.637 73.1497 156.43C72.9297 156.217 72.6497 156.053 72.3097 155.94C71.9697 155.827 71.5664 155.77 71.0997 155.77H69.1997V160.71H71.0997ZM71.0997 153.49C72.093 153.49 72.9497 153.607 73.6697 153.84C74.3964 154.073 74.993 154.4 75.4597 154.82C75.9264 155.233 76.2697 155.727 76.4897 156.3C76.7164 156.873 76.8297 157.497 76.8297 158.17C76.8297 158.883 76.713 159.537 76.4797 160.13C76.2464 160.723 75.893 161.233 75.4197 161.66C74.9464 162.087 74.3497 162.42 73.6297 162.66C72.9097 162.893 72.0664 163.01 71.0997 163.01H69.1997V168H66.1997V153.49H71.0997ZM91.1688 153.49V168H88.1488V161.75H81.7588V168H78.7388V153.49H81.7588V159.65H88.1488V153.49H91.1688ZM108.228 160.74C108.228 161.8 108.048 162.783 107.688 163.69C107.334 164.597 106.831 165.38 106.178 166.04C105.531 166.7 104.751 167.22 103.838 167.6C102.924 167.973 101.911 168.16 100.798 168.16C99.6842 168.16 98.6708 167.973 97.7575 167.6C96.8442 167.22 96.0608 166.7 95.4075 166.04C94.7542 165.38 94.2475 164.597 93.8875 163.69C93.5342 162.783 93.3575 161.8 93.3575 160.74C93.3575 159.68 93.5342 158.7 93.8875 157.8C94.2475 156.893 94.7542 156.11 95.4075 155.45C96.0608 154.79 96.8442 154.273 97.7575 153.9C98.6708 153.52 99.6842 153.33 100.798 153.33C101.911 153.33 102.924 153.52 103.838 153.9C104.751 154.273 105.531 154.793 106.178 155.46C106.831 156.12 107.334 156.903 107.688 157.81C108.048 158.71 108.228 159.687 108.228 160.74ZM105.158 160.74C105.158 159.98 105.058 159.3 104.858 158.7C104.658 158.093 104.368 157.58 103.987 157.16C103.614 156.733 103.158 156.41 102.618 156.19C102.084 155.963 101.478 155.85 100.798 155.85C100.118 155.85 99.5075 155.963 98.9675 156.19C98.4275 156.41 97.9675 156.733 97.5875 157.16C97.2142 157.58 96.9275 158.093 96.7275 158.7C96.5275 159.3 96.4275 159.98 96.4275 160.74C96.4275 161.507 96.5275 162.193 96.7275 162.8C96.9275 163.4 97.2142 163.91 97.5875 164.33C97.9675 164.75 98.4275 165.073 98.9675 165.3C99.5075 165.52 100.118 165.63 100.798 165.63C101.478 165.63 102.084 165.52 102.618 165.3C103.158 165.073 103.614 164.75 103.987 164.33C104.368 163.91 104.658 163.4 104.858 162.8C105.058 162.193 105.158 161.507 105.158 160.74ZM120.259 155.91H116.019V168H113.009V155.91H108.769V153.49H120.259V155.91ZM135.649 160.74C135.649 161.8 135.469 162.783 135.109 163.69C134.756 164.597 134.253 165.38 133.599 166.04C132.953 166.7 132.173 167.22 131.259 167.6C130.346 167.973 129.333 168.16 128.219 168.16C127.106 168.16 126.093 167.973 125.179 167.6C124.266 167.22 123.483 166.7 122.829 166.04C122.176 165.38 121.669 164.597 121.309 163.69C120.956 162.783 120.779 161.8 120.779 160.74C120.779 159.68 120.956 158.7 121.309 157.8C121.669 156.893 122.176 156.11 122.829 155.45C123.483 154.79 124.266 154.273 125.179 153.9C126.093 153.52 127.106 153.33 128.219 153.33C129.333 153.33 130.346 153.52 131.259 153.9C132.173 154.273 132.953 154.793 133.599 155.46C134.253 156.12 134.756 156.903 135.109 157.81C135.469 158.71 135.649 159.687 135.649 160.74ZM132.579 160.74C132.579 159.98 132.479 159.3 132.279 158.7C132.079 158.093 131.789 157.58 131.409 157.16C131.036 156.733 130.579 156.41 130.039 156.19C129.506 155.963 128.899 155.85 128.219 155.85C127.539 155.85 126.929 155.963 126.389 156.19C125.849 156.41 125.389 156.733 125.009 157.16C124.636 157.58 124.349 158.093 124.149 158.7C123.949 159.3 123.849 159.98 123.849 160.74C123.849 161.507 123.949 162.193 124.149 162.8C124.349 163.4 124.636 163.91 125.009 164.33C125.389 164.75 125.849 165.073 126.389 165.3C126.929 165.52 127.539 165.63 128.219 165.63C128.899 165.63 129.506 165.52 130.039 165.3C130.579 165.073 131.036 164.75 131.409 164.33C131.789 163.91 132.079 163.4 132.279 162.8C132.479 162.193 132.579 161.507 132.579 160.74Z" fill="#AFAFAF"/>
<path d="M67.3602 129.49H67.6102V129.24H67.3602V129.49ZM67.3602 144V144.25H67.6102V144H67.3602ZM65.2202 143.89L65.1083 144.114L65.116 144.117L65.2202 143.89ZM64.7502 143.49L64.5535 143.645L64.557 143.649L64.7502 143.49ZM57.5202 134.29L57.7167 134.136L57.1996 133.477L57.2711 134.311L57.5202 134.29ZM57.5602 134.98L57.3102 134.987L57.3106 134.995L57.5602 134.98ZM57.5802 144V144.25H57.8302V144H57.5802ZM54.9302 144H54.6802V144.25H54.9302V144ZM54.9302 129.49V129.24H54.6802V129.49H54.9302ZM56.8302 129.51L56.7921 129.757L56.8022 129.759L56.8123 129.759L56.8302 129.51ZM57.0802 129.58L56.9604 129.799L56.9684 129.804L56.9767 129.808L57.0802 129.58ZM57.2902 129.72L57.4574 129.534L57.4574 129.534L57.2902 129.72ZM57.5102 129.96L57.7065 129.805L57.7054 129.804L57.5102 129.96ZM64.7902 139.2L64.5938 139.355L65.1294 140.035L65.0388 139.174L64.7902 139.2ZM64.7302 138.47L64.4805 138.484L64.4806 138.484L64.7302 138.47ZM64.7102 129.49V129.24H64.4602V129.49H64.7102ZM67.1102 129.49V144H67.6102V129.49H67.1102ZM67.3602 143.75H65.8102V144.25H67.3602V143.75ZM65.8102 143.75C65.6016 143.75 65.4428 143.717 65.3243 143.663L65.116 144.117C65.3175 144.21 65.552 144.25 65.8102 144.25V143.75ZM65.332 143.666C65.2123 143.607 65.0818 143.5 64.9433 143.331L64.557 143.649C64.7252 143.853 64.908 144.013 65.1084 144.114L65.332 143.666ZM64.9467 143.336L57.7167 134.136L57.3236 134.444L64.5536 143.644L64.9467 143.336ZM57.2711 134.311C57.2907 134.54 57.3037 134.766 57.3103 134.987L57.81 134.973C57.8032 134.741 57.7896 134.506 57.7692 134.269L57.2711 134.311ZM57.3106 134.995C57.3237 135.217 57.3302 135.422 57.3302 135.61H57.8302C57.8302 135.411 57.8233 135.196 57.8097 134.965L57.3106 134.995ZM57.3302 135.61V144H57.8302V135.61H57.3302ZM57.5802 143.75H54.9302V144.25H57.5802V143.75ZM55.1802 144V129.49H54.6802V144H55.1802ZM54.9302 129.74H56.5102V129.24H54.9302V129.74ZM56.5102 129.74C56.6292 129.74 56.7222 129.746 56.7921 129.757L56.8682 129.263C56.7647 129.247 56.6445 129.24 56.5102 129.24V129.74ZM56.8123 129.759C56.8743 129.764 56.9221 129.779 56.9604 129.799L57.1999 129.361C57.0915 129.301 56.9727 129.27 56.848 129.261L56.8123 129.759ZM56.9767 129.808C57.0243 129.829 57.0731 129.861 57.1229 129.906L57.4574 129.534C57.3739 129.459 57.2827 129.397 57.1836 129.352L56.9767 129.808ZM57.1229 129.906C57.1762 129.954 57.2402 130.023 57.3149 130.116L57.7054 129.804C57.6201 129.697 57.5374 129.606 57.4574 129.534L57.1229 129.906ZM57.3138 130.115L64.5938 139.355L64.9865 139.045L57.7065 129.805L57.3138 130.115ZM65.0388 139.174C65.0125 138.924 64.9928 138.685 64.9797 138.456L64.4806 138.484C64.4941 138.722 64.5145 138.969 64.5415 139.226L65.0388 139.174ZM64.9798 138.456C64.9667 138.22 64.9602 137.998 64.9602 137.79H64.4602C64.4602 138.008 64.467 138.24 64.4805 138.484L64.9798 138.456ZM64.9602 137.79V129.49H64.4602V137.79H64.9602ZM64.7102 129.74H67.3602V129.24H64.7102V129.74ZM83.8789 139.69L83.6465 139.598L83.646 139.599L83.8789 139.69ZM82.3689 142.04L82.1912 141.864L82.1903 141.865L82.3689 142.04ZM80.0289 143.6L80.1235 143.831L80.1249 143.831L80.0289 143.6ZM73.9489 143.6L73.8529 143.831L73.8543 143.831L73.9489 143.6ZM71.5989 142.04L71.7766 141.864L71.7766 141.864L71.5989 142.04ZM70.0789 139.69L69.846 139.781L69.8466 139.782L70.0789 139.69ZM70.0789 133.8L69.8466 133.708L69.8462 133.709L70.0789 133.8ZM71.5989 131.45L71.4212 131.274L71.4212 131.274L71.5989 131.45ZM73.9489 129.9L74.0435 130.131L74.0449 130.131L73.9489 129.9ZM80.0289 129.9L79.9329 130.131L79.9343 130.131L80.0289 129.9ZM82.3689 131.46L82.1895 131.634L82.1912 131.636L82.3689 131.46ZM83.8789 133.81L83.646 133.901L83.6468 133.903L83.8789 133.81ZM81.0489 134.7L80.8115 134.778L80.8117 134.779L81.0489 134.7ZM80.1789 133.16L79.9907 133.325L79.9935 133.328L80.1789 133.16ZM78.8089 132.19L78.7111 132.42L78.7146 132.422L78.8089 132.19ZM75.1589 132.19L75.2532 132.422L75.2557 132.421L75.1589 132.19ZM73.7789 133.16L73.5922 132.994L73.5921 132.994L73.7789 133.16ZM72.9189 134.7L73.1561 134.779L73.1563 134.778L72.9189 134.7ZM72.9189 138.8L72.6815 138.878L72.6817 138.879L72.9189 138.8ZM73.7789 140.33L73.592 140.496L73.5935 140.498L73.7789 140.33ZM75.1589 141.3L75.0621 141.531L75.0646 141.532L75.1589 141.3ZM78.8089 141.3L78.9042 141.531L78.9057 141.531L78.8089 141.3ZM80.1789 140.33L79.9935 140.162L79.9921 140.164L80.1789 140.33ZM81.0489 138.8L81.2861 138.879L81.2863 138.878L81.0489 138.8ZM84.1689 136.74C84.1689 137.771 83.9939 138.723 83.6466 139.598L84.1113 139.782C84.4839 138.844 84.6689 137.829 84.6689 136.74H84.1689ZM83.646 139.599C83.3044 140.476 82.8194 141.23 82.1912 141.864L82.5466 142.216C83.2251 141.53 83.7467 140.718 84.1118 139.781L83.646 139.599ZM82.1903 141.865C81.5688 142.499 80.8174 143.001 79.9329 143.369L80.1249 143.831C81.067 143.439 81.8757 142.901 82.5475 142.215L82.1903 141.865ZM79.9343 143.369C79.0546 143.728 78.0739 143.91 76.9889 143.91V144.41C78.1305 144.41 79.1765 144.218 80.1235 143.831L79.9343 143.369ZM76.9889 143.91C75.9039 143.91 74.9232 143.728 74.0435 143.369L73.8543 143.831C74.8013 144.218 75.8473 144.41 76.9889 144.41V143.91ZM74.0449 143.369C73.1602 143.001 72.4051 142.499 71.7766 141.864L71.4212 142.216C72.0994 142.901 72.911 143.439 73.8529 143.831L74.0449 143.369ZM71.7766 141.864C71.1481 141.229 70.6595 140.475 70.3113 139.598L69.8466 139.782C70.2183 140.719 70.743 141.531 71.4212 142.216L71.7766 141.864ZM70.3118 139.599C69.9708 138.724 69.7989 137.772 69.7989 136.74H69.2989C69.2989 137.828 69.4804 138.843 69.846 139.781L70.3118 139.599ZM69.7989 136.74C69.7989 135.708 69.9708 134.76 70.3116 133.891L69.8462 133.709C69.4804 134.64 69.2989 135.652 69.2989 136.74H69.7989ZM70.3113 133.892C70.6595 133.015 71.1481 132.261 71.7766 131.626L71.4212 131.274C70.743 131.959 70.2183 132.771 69.8466 133.708L70.3113 133.892ZM71.7766 131.626C72.4048 130.991 73.1593 130.493 74.0435 130.131L73.8543 129.669C72.9118 130.054 72.0997 130.589 71.4212 131.274L71.7766 131.626ZM74.0449 130.131C74.9243 129.765 75.9044 129.58 76.9889 129.58V129.08C75.8467 129.08 74.8002 129.275 73.8529 129.669L74.0449 130.131ZM76.9889 129.58C78.0734 129.58 79.0536 129.765 79.9329 130.131L80.1249 129.669C79.1776 129.275 78.1311 129.08 76.9889 129.08V129.58ZM79.9343 130.131C80.8177 130.493 81.5683 130.994 82.1895 131.634L82.5484 131.286C81.8762 130.593 81.0667 130.054 80.1235 129.669L79.9343 130.131ZM82.1912 131.636C82.8194 132.27 83.3044 133.024 83.646 133.901L84.1118 133.719C83.7467 132.782 83.2251 131.97 82.5466 131.284L82.1912 131.636ZM83.6468 133.903C83.994 134.771 84.1689 135.716 84.1689 136.74H84.6689C84.6689 135.658 84.4838 134.649 84.111 133.717L83.6468 133.903ZM81.5989 136.74C81.5989 135.958 81.4961 135.251 81.2861 134.621L80.8117 134.779C81.0017 135.349 81.0989 136.002 81.0989 136.74H81.5989ZM81.2863 134.622C81.0768 133.986 80.7705 133.441 80.3643 132.992L79.9935 133.328C80.3473 133.719 80.621 134.2 80.8115 134.778L81.2863 134.622ZM80.3671 132.995C79.9673 132.539 79.4782 132.193 78.9032 131.958L78.7146 132.422C79.2196 132.627 79.6438 132.928 79.9908 133.325L80.3671 132.995ZM78.9067 131.96C78.3375 131.718 77.6968 131.6 76.9889 131.6V132.1C77.6411 132.1 78.2136 132.209 78.7111 132.42L78.9067 131.96ZM76.9889 131.6C76.281 131.6 75.6373 131.718 75.0621 131.959L75.2557 132.421C75.7605 132.209 76.3368 132.1 76.9889 132.1V131.6ZM75.0646 131.958C74.49 132.193 73.9982 132.538 73.5922 132.994L73.9656 133.326C74.3197 132.929 74.7478 132.627 75.2532 132.422L75.0646 131.958ZM73.5921 132.994C73.1931 133.443 72.8907 133.987 72.6815 134.622L73.1563 134.778C73.3471 134.2 73.618 133.717 73.9658 133.326L73.5921 132.994ZM72.6817 134.621C72.4717 135.251 72.3689 135.958 72.3689 136.74H72.8689C72.8689 136.002 72.9661 135.349 73.1561 134.779L72.6817 134.621ZM72.3689 136.74C72.3689 137.528 72.4717 138.242 72.6815 138.878L73.1563 138.722C72.9661 138.145 72.8689 137.485 72.8689 136.74H72.3689ZM72.6817 138.879C72.8911 139.507 73.1936 140.048 73.5921 140.496L73.9658 140.164C73.6176 139.772 73.3467 139.293 73.1561 138.721L72.6817 138.879ZM73.5935 140.498C73.999 140.946 74.4895 141.29 75.0621 141.531L75.2557 141.069C74.7483 140.857 74.3189 140.554 73.9643 140.162L73.5935 140.498ZM75.0646 141.532C75.6391 141.766 76.2819 141.88 76.9889 141.88V141.38C76.3359 141.38 75.7587 141.274 75.2532 141.068L75.0646 141.532ZM76.9889 141.88C77.6959 141.88 78.3358 141.766 78.9042 141.531L78.7136 141.069C78.2154 141.274 77.6419 141.38 76.9889 141.38V141.88ZM78.9057 141.531C79.4786 141.29 79.9665 140.945 80.3658 140.496L79.9921 140.164C79.6446 140.555 79.2192 140.857 78.7121 141.069L78.9057 141.531ZM80.3643 140.498C80.7701 140.049 81.0764 139.508 81.2861 138.879L80.8117 138.721C80.6214 139.292 80.3477 139.771 79.9935 140.162L80.3643 140.498ZM81.2863 138.878C81.4961 138.242 81.5989 137.528 81.5989 136.74H81.0989C81.0989 137.485 81.0017 138.145 80.8115 138.722L81.2863 138.878ZM98.1059 141.53L98.1926 141.765L98.1953 141.763L98.1059 141.53ZM98.8559 141.06L99.0358 141.234L99.0358 141.234L98.8559 141.06ZM99.2459 140.4L99.4856 140.471L99.4861 140.47L99.2459 140.4ZM99.2259 138.83L99.4603 138.743L99.4603 138.743L99.2259 138.83ZM98.8059 138.24L98.6427 138.429L98.6465 138.433L98.8059 138.24ZM98.0459 137.86L97.9779 138.101L97.9793 138.101L98.0459 137.86ZM94.3559 137.73V137.48H94.1059V137.73H94.3559ZM94.3559 141.7H94.1059V141.95H94.3559V141.7ZM94.3559 131.77V131.52H94.1059V131.77H94.3559ZM94.3559 135.69H94.1059V135.94H94.3559V135.69ZM97.4459 135.59L97.4959 135.835L97.5007 135.834L97.4459 135.59ZM98.7659 134.65L98.54 134.543L98.5388 134.546L98.7659 134.65ZM98.7959 132.82L98.5613 132.906L98.5634 132.912L98.7959 132.82ZM98.3559 132.21L98.508 132.012L98.508 132.012L98.3559 132.21ZM97.5959 131.88L97.5378 132.123L97.5428 132.124L97.5959 131.88ZM98.9959 129.77L98.9304 130.011L98.9331 130.012L98.9959 129.77ZM100.686 130.55L100.532 130.747L100.535 130.749L100.686 130.55ZM101.646 131.77L101.877 131.674L101.877 131.674L101.646 131.77ZM101.796 134.34L101.558 134.262L101.557 134.267L101.796 134.34ZM101.346 135.21L101.147 135.059L101.146 135.06L101.346 135.21ZM99.4259 136.5L99.3437 136.264L98.5342 136.546L99.3684 136.743L99.4259 136.5ZM101.616 137.64L101.802 137.473L101.802 137.473L101.616 137.64ZM101.966 141.4L101.738 141.296L101.737 141.299L101.966 141.4ZM100.936 142.77L100.774 142.58L100.774 142.58L100.936 142.77ZM99.2559 143.68L99.3328 143.918L99.3343 143.917L99.2559 143.68ZM91.3559 144H91.1059V144.25H91.3559V144ZM91.3559 129.49V129.24H91.1059V129.49H91.3559ZM96.9259 141.95C97.4229 141.95 97.8484 141.892 98.1926 141.764L98.0193 141.296C97.7501 141.395 97.3889 141.45 96.9259 141.45V141.95ZM98.1953 141.763C98.5346 141.634 98.8182 141.459 99.0358 141.234L98.6761 140.886C98.5203 141.048 98.304 141.186 98.0165 141.297L98.1953 141.763ZM99.0358 141.234C99.249 141.013 99.4003 140.758 99.4856 140.471L99.0063 140.329C98.9449 140.535 98.8362 140.721 98.6761 140.886L99.0358 141.234ZM99.4861 140.47C99.566 140.193 99.6059 139.91 99.6059 139.62H99.1059C99.1059 139.863 99.0725 140.1 99.0058 140.33L99.4861 140.47ZM99.6059 139.62C99.6059 139.302 99.559 139.009 99.4603 138.743L98.9916 138.917C99.0662 139.118 99.1059 139.351 99.1059 139.62H99.6059ZM99.4603 138.743C99.3582 138.468 99.1922 138.235 98.9653 138.047L98.6465 138.433C98.8063 138.565 98.9203 138.725 98.9916 138.917L99.4603 138.743ZM98.9692 138.051C98.7413 137.854 98.4521 137.713 98.1126 137.619L97.9793 138.101C98.2664 138.18 98.4839 138.292 98.6427 138.429L98.9692 138.051ZM98.1139 137.619C97.778 137.524 97.3734 137.48 96.9059 137.48V137.98C97.3451 137.98 97.7005 138.022 97.9779 138.101L98.1139 137.619ZM96.9059 137.48H94.3559V137.98H96.9059V137.48ZM94.1059 137.73V141.7H94.6059V137.73H94.1059ZM94.3559 141.95H96.9259V141.45H94.3559V141.95ZM94.1059 131.77V135.69H94.6059V131.77H94.1059ZM94.3559 135.94H96.3259V135.44H94.3559V135.94ZM96.3259 135.94C96.7586 135.94 97.1492 135.906 97.4959 135.835L97.3959 135.345C97.0893 135.408 96.7333 135.44 96.3259 135.44V135.94ZM97.5007 135.834C97.8514 135.755 98.1566 135.631 98.4089 135.455L98.123 135.045C97.9353 135.176 97.6938 135.278 97.3912 135.346L97.5007 135.834ZM98.4089 135.455C98.6659 135.276 98.8614 135.041 98.9931 134.754L98.5388 134.546C98.4438 134.752 98.306 134.917 98.123 135.045L98.4089 135.455ZM98.9919 134.757C99.1313 134.463 99.1959 134.121 99.1959 133.74H98.6959C98.6959 134.066 98.6406 134.331 98.54 134.543L98.9919 134.757ZM99.1959 133.74C99.1959 133.358 99.1431 133.019 99.0285 132.728L98.5634 132.912C98.6488 133.128 98.6959 133.402 98.6959 133.74H99.1959ZM99.0305 132.734C98.9221 132.439 98.7483 132.196 98.508 132.012L98.2038 132.408C98.3636 132.531 98.4832 132.694 98.5614 132.906L99.0305 132.734ZM98.508 132.012C98.2726 131.831 97.9831 131.708 97.649 131.636L97.5428 132.124C97.8221 132.185 98.0393 132.282 98.2038 132.408L98.508 132.012ZM97.6541 131.637C97.3233 131.558 96.9395 131.52 96.5059 131.52V132.02C96.9124 132.02 97.2553 132.056 97.5378 132.123L97.6541 131.637ZM96.5059 131.52H94.3559V132.02H96.5059V131.52ZM96.5059 129.74C97.4646 129.74 98.2713 129.832 98.9304 130.011L99.0615 129.529C98.3473 129.335 97.4939 129.24 96.5059 129.24V129.74ZM98.9331 130.012C99.6027 130.186 100.132 130.433 100.532 130.747L100.84 130.353C100.373 129.987 99.7758 129.714 99.0588 129.528L98.9331 130.012ZM100.535 130.749C100.942 131.058 101.233 131.43 101.415 131.866L101.877 131.674C101.659 131.15 101.31 130.709 100.837 130.351L100.535 130.749ZM101.415 131.866C101.601 132.312 101.696 132.815 101.696 133.38H102.196C102.196 132.758 102.091 132.188 101.877 131.674L101.415 131.866ZM101.696 133.38C101.696 133.688 101.65 133.982 101.558 134.262L102.034 134.418C102.142 134.085 102.196 133.739 102.196 133.38H101.696ZM101.557 134.267C101.473 134.544 101.337 134.808 101.147 135.059L101.545 135.361C101.769 135.066 101.933 134.749 102.035 134.413L101.557 134.267ZM101.146 135.06C100.965 135.302 100.726 135.527 100.424 135.734L100.708 136.146C101.046 135.913 101.327 135.652 101.546 135.36L101.146 135.06ZM100.424 135.734C100.126 135.939 99.7667 136.117 99.3437 136.264L99.5082 136.736C99.9652 136.577 100.366 136.381 100.708 136.146L100.424 135.734ZM99.3684 136.743C100.326 136.97 101.003 137.331 101.43 137.807L101.802 137.473C101.283 136.895 100.499 136.497 99.4835 136.257L99.3684 136.743ZM101.43 137.807C101.855 138.28 102.076 138.9 102.076 139.69H102.576C102.576 138.8 102.324 138.054 101.802 137.473L101.43 137.807ZM102.076 139.69C102.076 140.27 101.963 140.804 101.738 141.296L102.193 141.504C102.449 140.943 102.576 140.337 102.576 139.69H102.076ZM101.737 141.299C101.52 141.79 101.2 142.217 100.774 142.58L101.098 142.96C101.579 142.55 101.945 142.063 102.195 141.501L101.737 141.299ZM100.774 142.58C100.349 142.942 99.8189 143.231 99.1776 143.443L99.3343 143.917C100.026 143.689 100.616 143.371 101.098 142.96L100.774 142.58ZM99.179 143.442C98.549 143.646 97.8158 143.75 96.9759 143.75V144.25C97.856 144.25 98.6429 144.141 99.3328 143.918L99.179 143.442ZM96.9759 143.75H91.3559V144.25H96.9759V143.75ZM91.6059 144V129.49H91.1059V144H91.6059ZM91.3559 129.74H96.5059V129.24H91.3559V129.74ZM112.043 138.49V138.74H112.397L112.279 138.407L112.043 138.49ZM110.473 134.05L110.709 133.967L110.705 133.957L110.473 134.05ZM110.173 133.23L109.935 133.306L109.937 133.311L110.173 133.23ZM109.883 132.21L110.126 132.148L109.641 132.149L109.883 132.21ZM109.583 133.25L109.346 133.171L109.345 133.174L109.583 133.25ZM109.293 134.07L109.061 133.977L109.058 133.987L109.293 134.07ZM107.733 138.49L107.498 138.407L107.38 138.74H107.733V138.49ZM117.083 144V144.25H117.449L117.316 143.909L117.083 144ZM114.113 143.82L113.958 144.016L113.967 144.023L114.113 143.82ZM113.753 143.34L113.517 143.423L113.522 143.436L113.753 143.34ZM112.773 140.57L113.009 140.487L112.95 140.32H112.773V140.57ZM106.993 140.57V140.32H106.817L106.758 140.487L106.993 140.57ZM106.013 143.34L106.246 143.433L106.249 143.423L106.013 143.34ZM105.663 143.8L105.819 143.995L105.824 143.991L105.663 143.8ZM102.683 144L102.45 143.909L102.317 144.25H102.683V144ZM108.353 129.49V129.24H108.183L108.12 129.399L108.353 129.49ZM111.423 129.49L111.656 129.399L111.594 129.24H111.423V129.49ZM112.279 138.407L110.709 133.967L110.238 134.133L111.808 138.573L112.279 138.407ZM110.705 133.957C110.614 133.729 110.516 133.46 110.41 133.149L109.937 133.311C110.044 133.627 110.146 133.904 110.241 134.143L110.705 133.957ZM110.411 133.154C110.313 132.846 110.218 132.511 110.126 132.148L109.641 132.272C109.735 132.642 109.833 132.987 109.935 133.306L110.411 133.154ZM109.641 132.149C109.549 132.517 109.45 132.858 109.346 133.171L109.82 133.329C109.929 133.002 110.031 132.649 110.126 132.271L109.641 132.149ZM109.345 133.174C109.246 133.483 109.152 133.751 109.061 133.977L109.525 134.163C109.622 133.923 109.72 133.643 109.821 133.326L109.345 133.174ZM109.058 133.987L107.498 138.407L107.969 138.573L109.529 134.153L109.058 133.987ZM107.733 138.74H112.043V138.24H107.733V138.74ZM117.083 143.75H114.753V144.25H117.083V143.75ZM114.753 143.75C114.532 143.75 114.373 143.699 114.259 143.617L113.967 144.023C114.187 144.181 114.455 144.25 114.753 144.25V143.75ZM114.268 143.624C114.143 143.524 114.048 143.399 113.984 143.244L113.522 143.436C113.618 143.667 113.764 143.862 113.958 144.016L114.268 143.624ZM113.989 143.257L113.009 140.487L112.538 140.653L113.518 143.423L113.989 143.257ZM112.773 140.32H106.993V140.82H112.773V140.32ZM106.758 140.487L105.778 143.257L106.249 143.423L107.229 140.653L106.758 140.487ZM105.781 143.247C105.733 143.368 105.644 143.489 105.502 143.609L105.824 143.991C106.016 143.831 106.161 143.645 106.245 143.433L105.781 143.247ZM105.507 143.605C105.393 143.696 105.241 143.75 105.033 143.75V144.25C105.332 144.25 105.601 144.17 105.819 143.995L105.507 143.605ZM105.033 143.75H102.683V144.25H105.033V143.75ZM102.916 144.091L108.586 129.581L108.12 129.399L102.45 143.909L102.916 144.091ZM108.353 129.74H111.423V129.24H108.353V129.74ZM111.19 129.581L116.85 144.091L117.316 143.909L111.656 129.399L111.19 129.581ZM130.856 129.49H131.106V129.24H130.856V129.49ZM130.856 144V144.25H131.106V144H130.856ZM128.716 143.89L128.604 144.114L128.612 144.117L128.716 143.89ZM128.246 143.49L128.05 143.645L128.053 143.649L128.246 143.49ZM121.016 134.29L121.213 134.136L120.696 133.477L120.767 134.311L121.016 134.29ZM121.056 134.98L120.806 134.987L120.807 134.995L121.056 134.98ZM121.076 144V144.25H121.326V144H121.076ZM118.426 144H118.176V144.25H118.426V144ZM118.426 129.49V129.24H118.176V129.49H118.426ZM120.326 129.51L120.288 129.757L120.298 129.759L120.308 129.759L120.326 129.51ZM120.576 129.58L120.457 129.799L120.465 129.804L120.473 129.808L120.576 129.58ZM120.786 129.72L120.953 129.534L120.953 129.534L120.786 129.72ZM121.006 129.96L121.203 129.805L121.201 129.804L121.006 129.96ZM128.286 139.2L128.09 139.355L128.625 140.035L128.535 139.174L128.286 139.2ZM128.226 138.47L127.977 138.484L127.977 138.484L128.226 138.47ZM128.206 129.49V129.24H127.956V129.49H128.206ZM130.606 129.49V144H131.106V129.49H130.606ZM130.856 143.75H129.306V144.25H130.856V143.75ZM129.306 143.75C129.098 143.75 128.939 143.717 128.82 143.663L128.612 144.117C128.814 144.21 129.048 144.25 129.306 144.25V143.75ZM128.828 143.666C128.708 143.607 128.578 143.5 128.439 143.331L128.053 143.649C128.221 143.853 128.404 144.013 128.604 144.114L128.828 143.666ZM128.443 143.336L121.213 134.136L120.82 134.444L128.05 143.644L128.443 143.336ZM120.767 134.311C120.787 134.54 120.8 134.766 120.806 134.987L121.306 134.973C121.299 134.741 121.286 134.506 121.265 134.269L120.767 134.311ZM120.807 134.995C120.82 135.217 120.826 135.422 120.826 135.61H121.326C121.326 135.411 121.319 135.196 121.306 134.965L120.807 134.995ZM120.826 135.61V144H121.326V135.61H120.826ZM121.076 143.75H118.426V144.25H121.076V143.75ZM118.676 144V129.49H118.176V144H118.676ZM118.426 129.74H120.006V129.24H118.426V129.74ZM120.006 129.74C120.125 129.74 120.218 129.746 120.288 129.757L120.364 129.263C120.261 129.247 120.141 129.24 120.006 129.24V129.74ZM120.308 129.759C120.37 129.764 120.418 129.779 120.457 129.799L120.696 129.361C120.588 129.301 120.469 129.27 120.344 129.261L120.308 129.759ZM120.473 129.808C120.52 129.829 120.569 129.861 120.619 129.906L120.953 129.534C120.87 129.459 120.779 129.397 120.68 129.352L120.473 129.808ZM120.619 129.906C120.672 129.954 120.736 130.023 120.811 130.116L121.201 129.804C121.116 129.697 121.034 129.606 120.953 129.534L120.619 129.906ZM120.81 130.115L128.09 139.355L128.483 139.045L121.203 129.805L120.81 130.115ZM128.535 139.174C128.509 138.924 128.489 138.685 128.476 138.456L127.977 138.484C127.99 138.722 128.011 138.969 128.038 139.226L128.535 139.174ZM128.476 138.456C128.463 138.22 128.456 137.998 128.456 137.79H127.956C127.956 138.008 127.963 138.24 127.977 138.484L128.476 138.456ZM128.456 137.79V129.49H127.956V137.79H128.456ZM128.206 129.74H130.856V129.24H128.206V129.74ZM146.365 139.67L146.133 139.577L146.133 139.577L146.365 139.67ZM144.855 141.96L144.68 141.781L144.679 141.782L144.855 141.96ZM142.515 143.46L142.607 143.693L142.607 143.693L142.515 143.46ZM133.895 144H133.645V144.25H133.895V144ZM133.895 129.49V129.24H133.645V129.49H133.895ZM142.515 130.03L142.607 129.797L142.607 129.797L142.515 130.03ZM144.855 131.54L144.678 131.717L144.68 131.719L144.855 131.54ZM146.365 133.83L146.133 133.923L146.133 133.924L146.365 133.83ZM143.525 134.69L143.288 134.768L143.288 134.768L143.525 134.69ZM142.665 133.15L142.852 132.984L142.665 133.15ZM141.295 132.18L141.197 132.41L141.198 132.411L141.295 132.18ZM136.915 131.84V131.59H136.665V131.84H136.915ZM136.915 141.65H136.665V141.9H136.915V141.65ZM141.295 141.32L141.39 141.551L141.392 141.551L141.295 141.32ZM142.665 140.35L142.852 140.516L142.853 140.515L142.665 140.35ZM143.525 138.8L143.288 138.722L143.288 138.722L143.525 138.8ZM146.655 136.74C146.655 137.771 146.48 138.716 146.133 139.577L146.597 139.763C146.97 138.838 147.155 137.829 147.155 136.74H146.655ZM146.133 139.577C145.792 140.433 145.307 141.167 144.68 141.781L145.03 142.139C145.709 141.473 146.232 140.68 146.597 139.763L146.133 139.577ZM144.679 141.782C144.058 142.397 143.308 142.879 142.423 143.227L142.607 143.693C143.549 143.321 144.358 142.803 145.031 142.138L144.679 141.782ZM142.423 143.227C141.543 143.574 140.561 143.75 139.475 143.75V144.25C140.616 144.25 141.66 144.066 142.607 143.693L142.423 143.227ZM139.475 143.75H133.895V144.25H139.475V143.75ZM134.145 144V129.49H133.645V144H134.145ZM133.895 129.74H139.475V129.24H133.895V129.74ZM139.475 129.74C140.561 129.74 141.543 129.916 142.423 130.263L142.607 129.797C141.66 129.424 140.616 129.24 139.475 129.24V129.74ZM142.423 130.263C143.307 130.611 144.058 131.096 144.678 131.717L145.032 131.363C144.359 130.691 143.55 130.169 142.607 129.797L142.423 130.263ZM144.68 131.719C145.307 132.333 145.792 133.067 146.133 133.923L146.597 133.737C146.232 132.82 145.709 132.027 145.03 131.361L144.68 131.719ZM146.133 133.924C146.48 134.778 146.655 135.716 146.655 136.74H147.155C147.155 135.658 146.97 134.655 146.597 133.736L146.133 133.924ZM144.075 136.74C144.075 135.958 143.972 135.248 143.762 134.612L143.288 134.768C143.478 135.345 143.575 136.002 143.575 136.74H144.075ZM143.762 134.612C143.553 133.977 143.251 133.433 142.852 132.984L142.478 133.316C142.826 133.707 143.097 134.19 143.288 134.768L143.762 134.612ZM142.852 132.984C142.453 132.535 141.965 132.19 141.392 131.949L141.198 132.411C141.705 132.623 142.131 132.925 142.478 133.316L142.852 132.984ZM141.393 131.95C140.824 131.708 140.183 131.59 139.475 131.59V132.09C140.127 132.09 140.7 132.199 141.197 132.41L141.393 131.95ZM139.475 131.59H136.915V132.09H139.475V131.59ZM136.665 131.84V141.65H137.165V131.84H136.665ZM136.915 141.9H139.475V141.4H136.915V141.9ZM139.475 141.9C140.182 141.9 140.822 141.786 141.39 141.551L141.2 141.089C140.701 141.294 140.128 141.4 139.475 141.4V141.9ZM141.392 141.551C141.965 141.31 142.453 140.965 142.852 140.516L142.478 140.184C142.131 140.575 141.705 140.877 141.198 141.089L141.392 141.551ZM142.853 140.515C143.251 140.06 143.553 139.513 143.762 138.878L143.288 138.722C143.097 139.301 142.826 139.787 142.477 140.185L142.853 140.515ZM143.762 138.878C143.972 138.242 144.075 137.528 144.075 136.74H143.575C143.575 137.485 143.478 138.145 143.288 138.722L143.762 138.878ZM73.1597 160.03L72.9803 159.856L72.979 159.857L73.1597 160.03ZM73.6497 157.19L73.414 157.274L73.4165 157.28L73.6497 157.19ZM73.1497 156.43L72.9756 156.61L72.9812 156.615L73.1497 156.43ZM72.3097 155.94L72.3887 155.703L72.3887 155.703L72.3097 155.94ZM69.1997 155.77V155.52H68.9497V155.77H69.1997ZM69.1997 160.71H68.9497V160.96H69.1997V160.71ZM73.6697 153.84L73.5926 154.078L73.5933 154.078L73.6697 153.84ZM75.4597 154.82L75.2924 155.006L75.2939 155.007L75.4597 154.82ZM76.4897 156.3L76.2563 156.39L76.2572 156.392L76.4897 156.3ZM76.4797 160.13L76.247 160.039L76.247 160.039L76.4797 160.13ZM75.4197 161.66L75.2523 161.474L75.2523 161.474L75.4197 161.66ZM73.6297 162.66L73.7068 162.898L73.7087 162.897L73.6297 162.66ZM69.1997 163.01V162.76H68.9497V163.01H69.1997ZM69.1997 168V168.25H69.4497V168H69.1997ZM66.1997 168H65.9497V168.25H66.1997V168ZM66.1997 153.49V153.24H65.9497V153.49H66.1997ZM71.0997 160.96C72.074 160.96 72.8407 160.725 73.3404 160.203L72.979 159.857C72.612 160.241 72.0053 160.46 71.0997 160.46V160.96ZM73.3391 160.204C73.8348 159.693 74.0697 159.005 74.0697 158.17H73.5697C73.5697 158.908 73.3645 159.46 72.9803 159.856L73.3391 160.204ZM74.0697 158.17C74.0697 157.784 74.0088 157.426 73.8829 157.1L73.4165 157.28C73.5172 157.541 73.5697 157.836 73.5697 158.17H74.0697ZM73.8852 157.106C73.7654 156.769 73.5763 156.481 73.3181 156.245L72.9812 156.615C73.1764 156.793 73.3207 157.011 73.4141 157.274L73.8852 157.106ZM73.3237 156.251C73.0726 156.007 72.7583 155.826 72.3887 155.703L72.2306 156.177C72.541 156.281 72.7868 156.426 72.9757 156.609L73.3237 156.251ZM72.3887 155.703C72.0169 155.579 71.5856 155.52 71.0997 155.52V156.02C71.5471 156.02 71.9225 156.074 72.2306 156.177L72.3887 155.703ZM71.0997 155.52H69.1997V156.02H71.0997V155.52ZM68.9497 155.77V160.71H69.4497V155.77H68.9497ZM69.1997 160.96H71.0997V160.46H69.1997V160.96ZM71.0997 153.74C72.0745 153.74 72.9039 153.855 73.5926 154.078L73.7468 153.602C72.9955 153.359 72.1115 153.24 71.0997 153.24V153.74ZM73.5933 154.078C74.2934 154.303 74.857 154.614 75.2924 155.006L75.6269 154.634C75.129 154.186 74.4993 153.844 73.7461 153.602L73.5933 154.078ZM75.2939 155.007C75.731 155.394 76.0509 155.854 76.2563 156.39L76.7231 156.21C76.4885 155.599 76.1217 155.072 75.6254 154.633L75.2939 155.007ZM76.2572 156.392C76.4713 156.933 76.5797 157.525 76.5797 158.17H77.0797C77.0797 157.468 76.9614 156.813 76.7222 156.208L76.2572 156.392ZM76.5797 158.17C76.5797 158.856 76.4676 159.478 76.247 160.039L76.7123 160.221C76.9584 159.596 77.0797 158.911 77.0797 158.17H76.5797ZM76.247 160.039C76.0279 160.596 75.6969 161.074 75.2523 161.474L75.5871 161.846C76.0892 161.393 76.4648 160.851 76.7123 160.221L76.247 160.039ZM75.2523 161.474C74.809 161.874 74.2441 162.192 73.5506 162.423L73.7087 162.897C74.4553 162.648 75.0838 162.299 75.5871 161.846L75.2523 161.474ZM73.5526 162.422C72.8633 162.646 72.0471 162.76 71.0997 162.76V163.26C72.0856 163.26 72.9561 163.141 73.7068 162.898L73.5526 162.422ZM71.0997 162.76H69.1997V163.26H71.0997V162.76ZM68.9497 163.01V168H69.4497V163.01H68.9497ZM69.1997 167.75H66.1997V168.25H69.1997V167.75ZM66.4497 168V153.49H65.9497V168H66.4497ZM66.1997 153.74H71.0997V153.24H66.1997V153.74ZM91.1688 153.49H91.4188V153.24H91.1688V153.49ZM91.1688 168V168.25H91.4188V168H91.1688ZM88.1488 168H87.8988V168.25H88.1488V168ZM88.1488 161.75H88.3988V161.5H88.1488V161.75ZM81.7588 161.75V161.5H81.5088V161.75H81.7588ZM81.7588 168V168.25H82.0088V168H81.7588ZM78.7388 168H78.4888V168.25H78.7388V168ZM78.7388 153.49V153.24H78.4888V153.49H78.7388ZM81.7588 153.49H82.0088V153.24H81.7588V153.49ZM81.7588 159.65H81.5088V159.9H81.7588V159.65ZM88.1488 159.65V159.9H88.3988V159.65H88.1488ZM88.1488 153.49V153.24H87.8988V153.49H88.1488ZM90.9188 153.49V168H91.4188V153.49H90.9188ZM91.1688 167.75H88.1488V168.25H91.1688V167.75ZM88.3988 168V161.75H87.8988V168H88.3988ZM88.1488 161.5H81.7588V162H88.1488V161.5ZM81.5088 161.75V168H82.0088V161.75H81.5088ZM81.7588 167.75H78.7388V168.25H81.7588V167.75ZM78.9888 168V153.49H78.4888V168H78.9888ZM78.7388 153.74H81.7588V153.24H78.7388V153.74ZM81.5088 153.49V159.65H82.0088V153.49H81.5088ZM81.7588 159.9H88.1488V159.4H81.7588V159.9ZM88.3988 159.65V153.49H87.8988V159.65H88.3988ZM88.1488 153.74H91.1688V153.24H88.1488V153.74ZM107.688 163.69L107.455 163.598L107.455 163.599L107.688 163.69ZM106.178 166.04L106 165.864L105.999 165.865L106.178 166.04ZM103.838 167.6L103.932 167.831L103.934 167.831L103.838 167.6ZM97.7575 167.6L97.6615 167.831L97.6629 167.831L97.7575 167.6ZM95.4075 166.04L95.5852 165.864L95.5852 165.864L95.4075 166.04ZM93.8875 163.69L93.6546 163.781L93.6551 163.782L93.8875 163.69ZM93.8875 157.8L93.6551 157.708L93.6548 157.709L93.8875 157.8ZM95.4075 155.45L95.2298 155.274L95.2298 155.274L95.4075 155.45ZM97.7575 153.9L97.8521 154.131L97.8535 154.131L97.7575 153.9ZM103.838 153.9L103.741 154.131L103.743 154.131L103.838 153.9ZM106.178 155.46L105.998 155.634L106 155.636L106.178 155.46ZM107.688 157.81L107.455 157.901L107.455 157.903L107.688 157.81ZM104.858 158.7L104.62 158.778L104.62 158.779L104.858 158.7ZM103.987 157.16L103.799 157.325L103.802 157.328L103.987 157.16ZM102.618 156.19L102.52 156.42L102.523 156.422L102.618 156.19ZM98.9675 156.19L99.0618 156.422L99.0643 156.421L98.9675 156.19ZM97.5875 157.16L97.4008 156.994L97.4006 156.994L97.5875 157.16ZM96.7275 158.7L96.9647 158.779L96.9649 158.778L96.7275 158.7ZM96.7275 162.8L96.4901 162.878L96.4903 162.879L96.7275 162.8ZM97.5875 164.33L97.4006 164.496L97.4021 164.498L97.5875 164.33ZM98.9675 165.3L98.8707 165.531L98.8732 165.532L98.9675 165.3ZM102.618 165.3L102.713 165.531L102.714 165.531L102.618 165.3ZM103.987 164.33L103.802 164.162L103.801 164.164L103.987 164.33ZM104.858 162.8L105.095 162.879L105.095 162.878L104.858 162.8ZM107.978 160.74C107.978 161.771 107.803 162.723 107.455 163.598L107.92 163.782C108.292 162.844 108.478 161.829 108.478 160.74H107.978ZM107.455 163.599C107.113 164.476 106.628 165.23 106 165.864L106.355 166.216C107.034 165.53 107.555 164.718 107.92 163.781L107.455 163.599ZM105.999 165.865C105.377 166.499 104.626 167.001 103.741 167.369L103.934 167.831C104.876 167.439 105.684 166.901 106.356 166.215L105.999 165.865ZM103.743 167.369C102.863 167.728 101.883 167.91 100.798 167.91V168.41C101.939 168.41 102.985 168.218 103.932 167.831L103.743 167.369ZM100.798 167.91C99.7125 167.91 98.7318 167.728 97.8521 167.369L97.6629 167.831C98.6099 168.218 99.6559 168.41 100.798 168.41V167.91ZM97.8535 167.369C96.9688 167.001 96.2137 166.499 95.5852 165.864L95.2298 166.216C95.908 166.901 96.7196 167.439 97.6615 167.831L97.8535 167.369ZM95.5852 165.864C94.9567 165.229 94.4681 164.475 94.1199 163.598L93.6551 163.782C94.0269 164.719 94.5516 165.531 95.2298 166.216L95.5852 165.864ZM94.1204 163.599C93.7793 162.724 93.6075 161.772 93.6075 160.74H93.1075C93.1075 161.828 93.289 162.843 93.6546 163.781L94.1204 163.599ZM93.6075 160.74C93.6075 159.708 93.7794 158.76 94.1202 157.891L93.6548 157.709C93.289 158.64 93.1075 159.652 93.1075 160.74H93.6075ZM94.1199 157.892C94.4681 157.015 94.9567 156.261 95.5852 155.626L95.2298 155.274C94.5516 155.959 94.0269 156.771 93.6551 157.708L94.1199 157.892ZM95.5852 155.626C96.2134 154.991 96.9679 154.493 97.8521 154.131L97.6629 153.669C96.7204 154.054 95.9083 154.589 95.2298 155.274L95.5852 155.626ZM97.8535 154.131C98.7328 153.765 99.713 153.58 100.798 153.58V153.08C99.6553 153.08 98.6088 153.275 97.6615 153.669L97.8535 154.131ZM100.798 153.58C101.882 153.58 102.862 153.765 103.741 154.131L103.934 153.669C102.986 153.275 101.94 153.08 100.798 153.08V153.58ZM103.743 154.131C104.626 154.493 105.377 154.994 105.998 155.634L106.357 155.286C105.685 154.593 104.875 154.054 103.932 153.669L103.743 154.131ZM106 155.636C106.628 156.27 107.113 157.024 107.455 157.901L107.92 157.719C107.555 156.782 107.034 155.97 106.355 155.284L106 155.636ZM107.455 157.903C107.803 158.771 107.978 159.716 107.978 160.74H108.478C108.478 159.658 108.292 158.649 107.92 157.717L107.455 157.903ZM105.408 160.74C105.408 159.958 105.305 159.251 105.095 158.621L104.62 158.779C104.81 159.349 104.908 160.002 104.908 160.74H105.408ZM105.095 158.622C104.885 157.986 104.579 157.441 104.173 156.992L103.802 157.328C104.156 157.719 104.43 158.2 104.62 158.778L105.095 158.622ZM104.176 156.995C103.776 156.539 103.287 156.193 102.712 155.958L102.523 156.422C103.028 156.627 103.452 156.928 103.799 157.325L104.176 156.995ZM102.715 155.96C102.146 155.718 101.505 155.6 100.798 155.6V156.1C101.45 156.1 102.022 156.209 102.52 156.42L102.715 155.96ZM100.798 155.6C100.09 155.6 99.4459 155.718 98.8707 155.959L99.0643 156.421C99.5691 156.209 100.145 156.1 100.798 156.1V155.6ZM98.8732 155.958C98.2986 156.193 97.8067 156.538 97.4008 156.994L97.7742 157.326C98.1283 156.929 98.5564 156.627 99.0618 156.422L98.8732 155.958ZM97.4006 156.994C97.0017 157.443 96.6993 157.987 96.4901 158.622L96.9649 158.778C97.1557 158.2 97.4266 157.717 97.7744 157.326L97.4006 156.994ZM96.4903 158.621C96.2803 159.251 96.1775 159.958 96.1775 160.74H96.6775C96.6775 160.002 96.7747 159.349 96.9647 158.779L96.4903 158.621ZM96.1775 160.74C96.1775 161.528 96.2803 162.242 96.4901 162.878L96.9649 162.722C96.7747 162.145 96.6775 161.485 96.6775 160.74H96.1775ZM96.4903 162.879C96.6997 163.507 97.0022 164.048 97.4006 164.496L97.7744 164.164C97.4262 163.772 97.1553 163.293 96.9647 162.721L96.4903 162.879ZM97.4021 164.498C97.8075 164.946 98.2981 165.29 98.8707 165.531L99.0643 165.069C98.5569 164.857 98.1275 164.554 97.7729 164.162L97.4021 164.498ZM98.8732 165.532C99.4477 165.766 100.09 165.88 100.798 165.88V165.38C100.145 165.38 99.5673 165.274 99.0618 165.068L98.8732 165.532ZM100.798 165.88C101.504 165.88 102.144 165.766 102.713 165.531L102.522 165.069C102.024 165.274 101.451 165.38 100.798 165.38V165.88ZM102.714 165.531C103.287 165.29 103.775 164.945 104.174 164.496L103.801 164.164C103.453 164.555 103.028 164.857 102.521 165.069L102.714 165.531ZM104.173 164.498C104.579 164.049 104.885 163.508 105.095 162.879L104.62 162.721C104.43 163.292 104.156 163.771 103.802 164.162L104.173 164.498ZM105.095 162.878C105.305 162.242 105.408 161.528 105.408 160.74H104.908C104.908 161.485 104.81 162.145 104.62 162.722L105.095 162.878ZM120.259 155.91V156.16H120.509V155.91H120.259ZM116.019 155.91V155.66H115.769V155.91H116.019ZM116.019 168V168.25H116.269V168H116.019ZM113.009 168H112.759V168.25H113.009V168ZM113.009 155.91H113.259V155.66H113.009V155.91ZM108.769 155.91H108.519V156.16H108.769V155.91ZM108.769 153.49V153.24H108.519V153.49H108.769ZM120.259 153.49H120.509V153.24H120.259V153.49ZM120.259 155.66H116.019V156.16H120.259V155.66ZM115.769 155.91V168H116.269V155.91H115.769ZM116.019 167.75H113.009V168.25H116.019V167.75ZM113.259 168V155.91H112.759V168H113.259ZM113.009 155.66H108.769V156.16H113.009V155.66ZM109.019 155.91V153.49H108.519V155.91H109.019ZM108.769 153.74H120.259V153.24H108.769V153.74ZM120.009 153.49V155.91H120.509V153.49H120.009ZM135.109 163.69L134.877 163.598L134.876 163.599L135.109 163.69ZM133.599 166.04L133.422 165.864L133.421 165.865L133.599 166.04ZM131.259 167.6L131.354 167.831L131.355 167.831L131.259 167.6ZM125.179 167.6L125.083 167.831L125.085 167.831L125.179 167.6ZM122.829 166.04L123.007 165.864L123.007 165.864L122.829 166.04ZM121.309 163.69L121.076 163.781L121.077 163.782L121.309 163.69ZM121.309 157.8L121.077 157.708L121.077 157.709L121.309 157.8ZM122.829 155.45L122.652 155.274L122.652 155.274L122.829 155.45ZM125.179 153.9L125.274 154.131L125.275 154.131L125.179 153.9ZM131.259 153.9L131.163 154.131L131.165 154.131L131.259 153.9ZM133.599 155.46L133.42 155.634L133.422 155.636L133.599 155.46ZM135.109 157.81L134.876 157.901L134.877 157.903L135.109 157.81ZM132.279 158.7L132.042 158.778L132.042 158.779L132.279 158.7ZM131.409 157.16L131.221 157.325L131.224 157.328L131.409 157.16ZM130.039 156.19L129.942 156.42L129.945 156.422L130.039 156.19ZM126.389 156.19L126.484 156.422L126.486 156.421L126.389 156.19ZM125.009 157.16L124.823 156.994L124.823 156.994L125.009 157.16ZM124.149 158.7L124.387 158.779L124.387 158.778L124.149 158.7ZM124.149 162.8L123.912 162.878L123.912 162.879L124.149 162.8ZM125.009 164.33L124.823 164.496L124.824 164.498L125.009 164.33ZM126.389 165.3L126.293 165.531L126.295 165.532L126.389 165.3ZM130.039 165.3L130.135 165.531L130.136 165.531L130.039 165.3ZM131.409 164.33L131.224 164.162L131.223 164.164L131.409 164.33ZM132.279 162.8L132.517 162.879L132.517 162.878L132.279 162.8ZM135.399 160.74C135.399 161.771 135.224 162.723 134.877 163.598L135.342 163.782C135.714 162.844 135.899 161.829 135.899 160.74H135.399ZM134.876 163.599C134.535 164.476 134.05 165.23 133.422 165.864L133.777 166.216C134.456 165.53 134.977 164.718 135.342 163.781L134.876 163.599ZM133.421 165.865C132.799 166.499 132.048 167.001 131.163 167.369L131.355 167.831C132.298 167.439 133.106 166.901 133.778 166.215L133.421 165.865ZM131.165 167.369C130.285 167.728 129.304 167.91 128.219 167.91V168.41C129.361 168.41 130.407 168.218 131.354 167.831L131.165 167.369ZM128.219 167.91C127.134 167.91 126.154 167.728 125.274 167.369L125.085 167.831C126.032 168.218 127.078 168.41 128.219 168.41V167.91ZM125.275 167.369C124.391 167.001 123.636 166.499 123.007 165.864L122.652 166.216C123.33 166.901 124.141 167.439 125.083 167.831L125.275 167.369ZM123.007 165.864C122.379 165.229 121.89 164.475 121.542 163.598L121.077 163.782C121.449 164.719 121.974 165.531 122.652 166.216L123.007 165.864ZM121.542 163.599C121.201 162.724 121.029 161.772 121.029 160.74H120.529C120.529 161.828 120.711 162.843 121.076 163.781L121.542 163.599ZM121.029 160.74C121.029 159.708 121.201 158.76 121.542 157.891L121.077 157.709C120.711 158.64 120.529 159.652 120.529 160.74H121.029ZM121.542 157.892C121.89 157.015 122.379 156.261 123.007 155.626L122.652 155.274C121.974 155.959 121.449 156.771 121.077 157.708L121.542 157.892ZM123.007 155.626C123.635 154.991 124.39 154.493 125.274 154.131L125.085 153.669C124.142 154.054 123.33 154.589 122.652 155.274L123.007 155.626ZM125.275 154.131C126.155 153.765 127.135 153.58 128.219 153.58V153.08C127.077 153.08 126.031 153.275 125.083 153.669L125.275 154.131ZM128.219 153.58C129.304 153.58 130.284 153.765 131.163 154.131L131.355 153.669C130.408 153.275 129.362 153.08 128.219 153.08V153.58ZM131.165 154.131C132.048 154.493 132.799 154.994 133.42 155.634L133.779 155.286C133.107 154.593 132.297 154.054 131.354 153.669L131.165 154.131ZM133.422 155.636C134.05 156.27 134.535 157.024 134.876 157.901L135.342 157.719C134.977 156.782 134.456 155.97 133.777 155.284L133.422 155.636ZM134.877 157.903C135.224 158.771 135.399 159.716 135.399 160.74H135.899C135.899 159.658 135.714 158.649 135.341 157.717L134.877 157.903ZM132.829 160.74C132.829 159.958 132.727 159.251 132.517 158.621L132.042 158.779C132.232 159.349 132.329 160.002 132.329 160.74H132.829ZM132.517 158.622C132.307 157.986 132.001 157.441 131.595 156.992L131.224 157.328C131.578 157.719 131.851 158.2 132.042 158.778L132.517 158.622ZM131.598 156.995C131.198 156.539 130.709 156.193 130.134 155.958L129.945 156.422C130.45 156.627 130.874 156.928 131.221 157.325L131.598 156.995ZM130.137 155.96C129.568 155.718 128.927 155.6 128.219 155.6V156.1C128.872 156.1 129.444 156.209 129.942 156.42L130.137 155.96ZM128.219 155.6C127.511 155.6 126.868 155.718 126.293 155.959L126.486 156.421C126.991 156.209 127.567 156.1 128.219 156.1V155.6ZM126.295 155.958C125.72 156.193 125.229 156.538 124.823 156.994L125.196 157.326C125.55 156.929 125.978 156.627 126.484 156.422L126.295 155.958ZM124.823 156.994C124.424 157.443 124.121 157.987 123.912 158.622L124.387 158.778C124.578 158.2 124.848 157.717 125.196 157.326L124.823 156.994ZM123.912 158.621C123.702 159.251 123.599 159.958 123.599 160.74H124.099C124.099 160.002 124.197 159.349 124.387 158.779L123.912 158.621ZM123.599 160.74C123.599 161.528 123.702 162.242 123.912 162.878L124.387 162.722C124.197 162.145 124.099 161.485 124.099 160.74H123.599ZM123.912 162.879C124.122 163.507 124.424 164.048 124.823 164.496L125.196 164.164C124.848 163.772 124.577 163.293 124.387 162.721L123.912 162.879ZM124.824 164.498C125.229 164.946 125.72 165.29 126.293 165.531L126.486 165.069C125.979 164.857 125.549 164.554 125.195 164.162L124.824 164.498ZM126.295 165.532C126.87 165.766 127.512 165.88 128.219 165.88V165.38C127.566 165.38 126.989 165.274 126.484 165.068L126.295 165.532ZM128.219 165.88C128.926 165.88 129.566 165.766 130.135 165.531L129.944 165.069C129.446 165.274 128.872 165.38 128.219 165.38V165.88ZM130.136 165.531C130.709 165.29 131.197 164.945 131.596 164.496L131.223 164.164C130.875 164.555 130.45 164.857 129.943 165.069L130.136 165.531ZM131.595 164.498C132.001 164.049 132.307 163.508 132.517 162.879L132.042 162.721C131.852 163.292 131.578 163.771 131.224 164.162L131.595 164.498ZM132.517 162.878C132.727 162.242 132.829 161.528 132.829 160.74H132.329C132.329 161.485 132.232 162.145 132.042 162.722L132.517 162.878Z" fill="#8D8D8D"/>
</svg>
