<svg width="146" height="146" viewBox="0 0 146 146" fill="none" xmlns="http://www.w3.org/2000/svg">
<path fill-rule="evenodd" clip-rule="evenodd" d="M25.6814 79.6708C23.2144 70.7235 22.3612 61.3269 22.708 51.9982C23.133 40.7367 25.8954 29.2627 31.1547 19.223C35.0858 11.733 44.4887 -4.99991 54.901 3.18062C59.7884 7.05841 61.8602 13.2204 63.7196 18.9042C65.6851 24.9068 67.3851 31.0157 68.8194 37.1776C70.8358 45.9146 72.3632 54.7152 73.4151 63.5931C73.5514 63.4345 73.7068 63.2597 73.7068 63.2597C74.6099 62.2504 75.4599 61.1349 76.2036 59.9663C76.6286 59.3288 77.0536 58.6383 77.4255 58.0008C77.5414 57.769 77.9947 56.9187 77.9673 56.9836C79.1138 54.7053 80.0455 52.3425 80.9317 49.9796L80.9318 49.9793L80.9321 49.9784L80.9322 49.9781L80.9323 49.978C81.4102 48.6505 81.8881 47.323 82.3129 45.9425C82.4191 45.5706 82.5387 45.1987 82.6582 44.8269C82.7777 44.4551 82.8973 44.0833 83.0035 43.7114C82.9205 43.9329 82.7365 44.5004 82.6769 44.6852C82.7146 44.5675 82.8121 44.2618 83.0035 43.6583C84.0661 40.1786 85.142 36.6855 86.2178 33.1924L86.2182 33.1911L86.2189 33.1891L86.2205 33.1838L86.2209 33.1824C87.2955 29.6935 88.3701 26.2046 89.4315 22.7289C89.8046 21.5255 90.1565 20.2762 90.5139 19.0075L90.514 19.007C92.1914 13.0516 93.9892 6.66879 98.675 2.5963C102.819 -0.962765 108.769 -0.644043 113.231 2.22446C118.862 5.83664 121.731 12.5829 123.324 18.798C126.724 32.3968 127.946 46.8987 128.371 60.9224C128.743 74.6806 128.69 89.3418 125.184 102.728C122.103 114.574 115.94 124.773 106.325 132.422C88.2096 146.924 62.3915 149.368 41.0357 141.294C30.0391 137.097 20.8486 129.235 18.1393 117.336C16.1206 108.412 16.8112 99.2222 19.9987 90.6698C21.4487 86.8034 23.4596 83.1614 25.6814 79.6708ZM81.9033 113.862C83.1805 115.139 86.0615 113.986 87.6754 113.199C89.2663 112.402 90.922 111.268 92.4731 110.01C94.0243 111.268 95.68 112.402 97.2709 113.199C98.8848 113.986 101.766 115.139 103.043 113.862C105.371 111.534 102.285 106.574 99.3551 102.898C102.278 99.2213 105.367 94.2953 103.043 91.9711C101.766 90.6939 98.8848 91.847 97.271 92.6345C95.6801 93.4308 94.0243 94.5651 92.4731 95.8235C90.922 94.5651 89.2662 93.4308 87.6753 92.6345C86.0615 91.847 83.1804 90.6939 81.9033 91.9711C79.5791 94.2953 82.6686 99.2213 85.5912 102.898C82.6611 106.574 79.5748 111.534 81.9033 113.862ZM49.7511 115.088C48.4739 113.811 49.704 110.853 50.5373 109.193C51.4029 107.511 52.634 105.751 53.99 104.107C52.634 102.464 51.403 100.704 50.5373 99.0218C49.7041 97.3621 48.474 94.4041 49.7512 93.1269C52.1061 90.772 57.2892 94.132 61.1074 97.2147C64.9255 94.132 70.1087 90.772 72.4636 93.1269C73.7407 94.4041 72.5107 97.3621 71.6774 99.0218C70.8118 100.704 69.5807 102.464 68.2247 104.107C69.5807 105.751 70.8118 107.511 71.6774 109.193C72.5107 110.853 73.7408 113.811 72.4636 115.088C70.1121 117.44 64.9209 114.112 61.1074 111.03C57.2938 114.112 52.1027 117.44 49.7511 115.088Z" fill="black"/>
</svg>
