<svg width="640" height="146" viewBox="0 0 640 146" fill="none" xmlns="http://www.w3.org/2000/svg">
<path fill-rule="evenodd" clip-rule="evenodd" d="M8.68141 79.6708C6.21435 70.7235 5.36117 61.3269 5.70798 51.9982C6.13297 40.7367 8.89541 29.2627 14.1547 19.223C18.0858 11.733 27.4887 -4.99991 37.901 3.18062C42.7884 7.05841 44.8602 13.2204 46.7196 18.9042C48.6851 24.9068 50.3851 31.0157 51.8194 37.1776C53.8358 45.9146 55.3632 54.7152 56.4151 63.5931C56.5514 63.4345 56.7068 63.2597 56.7068 63.2597C57.6099 62.2504 58.4599 61.1349 59.2036 59.9663C59.6286 59.3288 60.0536 58.6383 60.4255 58.0008C60.5414 57.769 60.9947 56.9187 60.9673 56.9836C62.1138 54.7053 63.0455 52.3425 63.9317 49.9796L63.9318 49.9793L63.9321 49.9784L63.9322 49.9781C64.4101 48.6506 64.8881 47.3231 65.3129 45.9425C65.4191 45.5706 65.5387 45.1987 65.6582 44.8269C65.7777 44.4551 65.8973 44.0833 66.0035 43.7114C65.9205 43.9329 65.7365 44.5004 65.6769 44.6852C65.7146 44.5675 65.8121 44.2618 66.0035 43.6583C67.0661 40.1786 68.142 36.6855 69.2178 33.1924L69.2182 33.1911L69.2189 33.1891C70.2942 29.6979 71.3695 26.2068 72.4315 22.7289C72.8046 21.5255 73.1565 20.2762 73.5139 19.0075L73.514 19.007C75.1914 13.0516 76.9892 6.66879 81.675 2.5963C85.8187 -0.962765 91.7685 -0.644043 96.2309 2.22446C101.862 5.83664 104.731 12.5829 106.324 18.798C109.724 32.3968 110.946 46.8987 111.371 60.9224C111.743 74.6806 111.69 89.3418 108.184 102.728C105.103 114.574 98.9402 124.773 89.3248 132.422C71.2096 146.924 45.3915 149.368 24.0357 141.294C13.0391 137.097 3.84865 129.235 1.13934 117.336C-0.879369 108.412 -0.18876 99.2222 2.99867 90.6698C4.44866 86.8034 6.45955 83.1614 8.68141 79.6708ZM72.272 108.412C74.0782 108.412 75.3001 106.181 75.8844 104.853C76.9469 102.356 77.3188 99.0629 77.2125 96.4069C77.0532 93.379 76.3625 84.6142 71.7408 84.6142C69.9346 84.6142 68.7127 86.8452 68.1283 88.1732C67.0659 90.6699 66.694 93.9633 66.8003 96.6194C66.9065 99.6472 67.6502 108.412 72.272 108.412ZM56.0162 108.678C55.4319 110.006 54.21 112.237 52.4038 112.237C47.782 112.237 47.0383 103.472 46.9321 100.444C46.8258 97.788 47.1977 94.4945 48.2602 91.9978C48.8445 90.6698 50.0664 88.4388 51.8726 88.4388C56.4943 88.4388 57.185 97.2036 57.3443 100.231C57.4506 102.888 57.0787 106.181 56.0162 108.678Z" fill="white"/>
<path d="M191.926 54.1253C191.478 54.8613 191.014 55.4053 190.534 55.7573C190.086 56.0773 189.494 56.2373 188.758 56.2373C188.054 56.2373 187.286 55.9973 186.454 55.5173C185.654 55.0053 184.71 54.4613 183.622 53.8853C182.534 53.3093 181.286 52.7813 179.878 52.3013C178.47 51.7893 176.822 51.5333 174.934 51.5333C171.606 51.5333 169.11 52.2853 167.446 53.7893C165.782 55.2613 164.95 57.1973 164.95 59.5973C164.95 61.1333 165.398 62.4133 166.294 63.4373C167.222 64.4293 168.422 65.2933 169.894 66.0293C171.398 66.7653 173.094 67.4213 174.982 67.9973C176.87 68.5733 178.806 69.2133 180.79 69.9173C182.774 70.5893 184.71 71.3893 186.598 72.3173C188.486 73.2453 190.166 74.4133 191.638 75.8213C193.142 77.2293 194.342 78.9573 195.238 81.0053C196.166 83.0213 196.63 85.4853 196.63 88.3973C196.63 91.5653 196.07 94.5413 194.95 97.3253C193.862 100.077 192.278 102.493 190.198 104.573C188.118 106.621 185.542 108.237 182.47 109.421C179.43 110.605 175.974 111.197 172.102 111.197C169.894 111.197 167.686 110.973 165.478 110.525C163.302 110.077 161.19 109.453 159.142 108.653C157.126 107.853 155.222 106.893 153.43 105.773C151.638 104.653 150.07 103.405 148.726 102.029L152.95 95.2133C153.302 94.7013 153.766 94.2853 154.342 93.9653C154.918 93.6133 155.526 93.4373 156.166 93.4373C157.03 93.4373 157.942 93.7573 158.902 94.3973C159.862 95.0373 160.966 95.7413 162.214 96.5093C163.462 97.2773 164.902 97.9813 166.534 98.6213C168.198 99.2613 170.182 99.5813 172.486 99.5813C175.846 99.5813 178.438 98.8133 180.262 97.2773C182.118 95.7413 183.046 93.4533 183.046 90.4133C183.046 88.6533 182.582 87.2293 181.654 86.1413C180.758 85.0533 179.574 84.1413 178.102 83.4053C176.63 82.6693 174.95 82.0453 173.062 81.5333C171.174 80.9893 169.238 80.3973 167.254 79.7573C165.27 79.1173 163.334 78.3493 161.446 77.4533C159.558 76.5573 157.878 75.3733 156.406 73.9013C154.934 72.4293 153.734 70.6053 152.806 68.4293C151.91 66.2533 151.462 63.5493 151.462 60.3173C151.462 57.7253 151.974 55.2133 152.998 52.7813C154.022 50.3493 155.526 48.1893 157.51 46.3013C159.494 44.4133 161.926 42.8933 164.806 41.7413C167.718 40.5893 171.046 40.0133 174.79 40.0133C178.982 40.0133 182.854 40.6693 186.406 41.9813C189.99 43.2613 193.014 45.0533 195.478 47.3573L191.926 54.1253ZM227.476 60.1733C231.188 60.1733 234.564 60.7653 237.604 61.9493C240.644 63.1333 243.252 64.8293 245.428 67.0373C247.604 69.2133 249.284 71.8693 250.468 75.0053C251.652 78.1413 252.244 81.6773 252.244 85.6133C252.244 89.5493 251.652 93.1013 250.468 96.2693C249.284 99.4053 247.604 102.077 245.428 104.285C243.252 106.493 240.644 108.189 237.604 109.373C234.564 110.557 231.188 111.149 227.476 111.149C223.732 111.149 220.324 110.557 217.252 109.373C214.212 108.189 211.604 106.493 209.428 104.285C207.252 102.077 205.556 99.4053 204.34 96.2693C203.156 93.1013 202.564 89.5493 202.564 85.6133C202.564 81.6773 203.156 78.1413 204.34 75.0053C205.556 71.8693 207.252 69.2133 209.428 67.0373C211.604 64.8293 214.212 63.1333 217.252 61.9493C220.324 60.7653 223.732 60.1733 227.476 60.1733ZM227.476 101.213C231.252 101.213 234.052 99.9173 235.876 97.3253C237.7 94.7013 238.612 90.8133 238.612 85.6613C238.612 80.5413 237.7 76.6853 235.876 74.0933C234.052 71.4693 231.252 70.1573 227.476 70.1573C223.604 70.1573 220.756 71.4693 218.932 74.0933C217.108 76.6853 216.196 80.5413 216.196 85.6613C216.196 90.8133 217.108 94.7013 218.932 97.3253C220.756 99.9173 223.604 101.213 227.476 101.213ZM304.002 60.9413V110.429H295.842C294.146 110.429 293.058 109.661 292.578 108.125L291.714 104.669C290.722 105.629 289.698 106.509 288.642 107.309C287.586 108.109 286.45 108.797 285.234 109.373C284.05 109.949 282.754 110.397 281.346 110.717C279.97 111.037 278.466 111.197 276.834 111.197C274.146 111.197 271.746 110.733 269.634 109.805C267.554 108.877 265.81 107.581 264.402 105.917C262.994 104.253 261.922 102.269 261.186 99.9653C260.45 97.6613 260.082 95.1333 260.082 92.3813V60.9413H273.33V92.3813C273.33 95.1333 273.954 97.2773 275.202 98.8133C276.482 100.317 278.37 101.069 280.866 101.069C282.722 101.069 284.466 100.669 286.098 99.8693C287.73 99.0373 289.282 97.9173 290.754 96.5093V60.9413H304.002ZM327.225 66.7013C328.217 65.7413 329.241 64.8613 330.297 64.0613C331.385 63.2613 332.521 62.5733 333.705 61.9973C334.921 61.4213 336.217 60.9733 337.593 60.6533C339.001 60.3333 340.521 60.1733 342.153 60.1733C344.841 60.1733 347.225 60.6373 349.305 61.5653C351.385 62.4933 353.129 63.7893 354.537 65.4533C355.977 67.1173 357.049 69.1013 357.753 71.4053C358.489 73.7093 358.857 76.2373 358.857 78.9893V110.429H345.657V78.9893C345.657 76.2373 345.017 74.1093 343.737 72.6053C342.457 71.0693 340.569 70.3013 338.073 70.3013C336.217 70.3013 334.473 70.7013 332.841 71.5013C331.209 72.3013 329.657 73.4213 328.185 74.8613V110.429H314.937V60.9413H323.097C324.761 60.9413 325.865 61.7093 326.409 63.2453L327.225 66.7013ZM399.982 73.8053C398.734 72.3653 397.374 71.3573 395.902 70.7813C394.462 70.2053 392.926 69.9173 391.294 69.9173C389.694 69.9173 388.238 70.2213 386.926 70.8293C385.614 71.4373 384.478 72.3973 383.518 73.7093C382.59 74.9893 381.87 76.6373 381.358 78.6533C380.846 80.6693 380.59 83.0693 380.59 85.8533C380.59 88.6053 380.798 90.9413 381.214 92.8613C381.63 94.7813 382.222 96.3333 382.99 97.5173C383.79 98.7013 384.75 99.5653 385.87 100.109C386.99 100.621 388.238 100.877 389.614 100.877C391.95 100.877 393.902 100.413 395.47 99.4853C397.07 98.5573 398.574 97.2453 399.982 95.5493V73.8053ZM413.23 38.8613V110.429H405.07C403.374 110.429 402.286 109.661 401.806 108.125L400.702 103.805C399.71 104.893 398.654 105.885 397.534 106.781C396.446 107.677 395.262 108.461 393.982 109.133C392.702 109.773 391.326 110.269 389.854 110.621C388.382 110.973 386.782 111.149 385.054 111.149C382.398 111.149 379.966 110.589 377.758 109.469C375.55 108.349 373.63 106.717 371.998 104.573C370.398 102.397 369.15 99.7413 368.254 96.6053C367.358 93.4693 366.91 89.8853 366.91 85.8533C366.91 82.1733 367.406 78.7493 368.398 75.5813C369.422 72.4133 370.862 69.6773 372.718 67.3733C374.574 65.0693 376.814 63.2613 379.438 61.9493C382.062 60.6373 384.974 59.9813 388.174 59.9813C390.862 59.9813 393.118 60.3813 394.942 61.1813C396.798 61.9813 398.478 63.0693 399.982 64.4453V38.8613H413.23ZM427.849 110.429V70.4453L424.009 69.7733C423.017 69.5813 422.201 69.2293 421.561 68.7173C420.953 68.2053 420.649 67.4693 420.649 66.5093V61.2293H427.849V57.9653C427.849 55.1493 428.281 52.6053 429.145 50.3333C430.041 48.0293 431.305 46.0933 432.937 44.5253C434.569 42.9253 436.569 41.6933 438.937 40.8293C441.305 39.9653 443.977 39.5333 446.953 39.5333C448.105 39.5333 449.193 39.6133 450.217 39.7733C451.273 39.9013 452.329 40.1093 453.385 40.3973L453.097 46.9253C453.033 47.9173 452.601 48.5733 451.801 48.8933C451.033 49.1813 450.169 49.3253 449.209 49.3253C447.865 49.3253 446.649 49.4693 445.561 49.7573C444.505 50.0453 443.609 50.5413 442.873 51.2453C442.137 51.9173 441.577 52.8453 441.193 54.0293C440.809 55.1813 440.617 56.6213 440.617 58.3493V61.2293H452.905V70.4453H441.049V110.429H427.849ZM472.663 60.9413V110.429H459.415V60.9413H472.663ZM474.247 46.8773C474.247 47.9973 474.023 49.0373 473.575 49.9973C473.127 50.9573 472.519 51.8053 471.751 52.5413C471.015 53.2773 470.135 53.8533 469.111 54.2693C468.119 54.6853 467.047 54.8933 465.895 54.8933C464.807 54.8933 463.767 54.6853 462.775 54.2693C461.815 53.8533 460.967 53.2773 460.231 52.5413C459.495 51.8053 458.903 50.9573 458.455 49.9973C458.039 49.0373 457.831 47.9973 457.831 46.8773C457.831 45.7573 458.039 44.7173 458.455 43.7573C458.903 42.7653 459.495 41.9013 460.231 41.1653C460.967 40.4293 461.815 39.8533 462.775 39.4373C463.767 39.0213 464.807 38.8133 465.895 38.8133C467.047 38.8133 468.119 39.0213 469.111 39.4373C470.135 39.8533 471.015 40.4293 471.751 41.1653C472.519 41.9013 473.127 42.7653 473.575 43.7573C474.023 44.7173 474.247 45.7573 474.247 46.8773ZM515.36 79.8533C515.36 78.4773 515.168 77.1653 514.784 75.9173C514.432 74.6693 513.856 73.5653 513.056 72.6053C512.256 71.6453 511.248 70.8933 510.032 70.3493C508.816 69.7733 507.36 69.4853 505.664 69.4853C502.496 69.4853 500.016 70.3813 498.224 72.1733C496.432 73.9653 495.264 76.5253 494.72 79.8533H515.36ZM494.528 87.7253C494.944 92.3653 496.256 95.7573 498.464 97.9013C500.704 100.045 503.616 101.117 507.2 101.117C509.024 101.117 510.592 100.909 511.904 100.493C513.248 100.045 514.416 99.5653 515.408 99.0533C516.432 98.5093 517.344 98.0293 518.144 97.6133C518.976 97.1653 519.792 96.9413 520.592 96.9413C521.616 96.9413 522.416 97.3253 522.992 98.0933L526.832 102.893C525.424 104.525 523.872 105.885 522.176 106.973C520.48 108.029 518.72 108.877 516.896 109.517C515.072 110.125 513.232 110.541 511.376 110.765C509.52 111.021 507.728 111.149 506 111.149C502.544 111.149 499.312 110.589 496.304 109.469C493.328 108.317 490.72 106.637 488.48 104.429C486.272 102.189 484.528 99.4213 483.248 96.1253C481.968 92.8293 481.328 89.0053 481.328 84.6533C481.328 81.2933 481.872 78.1253 482.96 75.1493C484.08 72.1733 485.68 69.5813 487.76 67.3733C489.84 65.1653 492.368 63.4213 495.344 62.1413C498.32 60.8293 501.68 60.1733 505.424 60.1733C508.592 60.1733 511.504 60.6853 514.16 61.7093C516.848 62.7013 519.152 64.1573 521.072 66.0773C523.024 67.9973 524.528 70.3653 525.584 73.1813C526.672 75.9653 527.216 79.1493 527.216 82.7333C527.216 83.7253 527.168 84.5413 527.072 85.1813C526.976 85.8213 526.816 86.3333 526.592 86.7173C526.368 87.1013 526.064 87.3733 525.68 87.5333C525.296 87.6613 524.8 87.7253 524.192 87.7253H494.528ZM547.725 66.7013C548.717 65.7413 549.741 64.8613 550.797 64.0613C551.885 63.2613 553.021 62.5733 554.205 61.9973C555.421 61.4213 556.717 60.9733 558.093 60.6533C559.501 60.3333 561.021 60.1733 562.653 60.1733C565.341 60.1733 567.725 60.6373 569.805 61.5653C571.885 62.4933 573.629 63.7893 575.037 65.4533C576.477 67.1173 577.549 69.1013 578.253 71.4053C578.989 73.7093 579.357 76.2373 579.357 78.9893V110.429H566.157V78.9893C566.157 76.2373 565.517 74.1093 564.237 72.6053C562.957 71.0693 561.069 70.3013 558.573 70.3013C556.717 70.3013 554.973 70.7013 553.341 71.5013C551.709 72.3013 550.157 73.4213 548.685 74.8613V110.429H535.437V60.9413H543.597C545.261 60.9413 546.365 61.7093 546.909 63.2453L547.725 66.7013ZM620.482 73.8053C619.234 72.3653 617.874 71.3573 616.402 70.7813C614.962 70.2053 613.426 69.9173 611.794 69.9173C610.194 69.9173 608.738 70.2213 607.426 70.8293C606.114 71.4373 604.978 72.3973 604.018 73.7093C603.09 74.9893 602.37 76.6373 601.858 78.6533C601.346 80.6693 601.09 83.0693 601.09 85.8533C601.09 88.6053 601.298 90.9413 601.714 92.8613C602.13 94.7813 602.722 96.3333 603.49 97.5173C604.29 98.7013 605.25 99.5653 606.37 100.109C607.49 100.621 608.738 100.877 610.114 100.877C612.45 100.877 614.402 100.413 615.97 99.4853C617.57 98.5573 619.074 97.2453 620.482 95.5493V73.8053ZM633.73 38.8613V110.429H625.57C623.874 110.429 622.786 109.661 622.306 108.125L621.202 103.805C620.21 104.893 619.154 105.885 618.034 106.781C616.946 107.677 615.762 108.461 614.482 109.133C613.202 109.773 611.826 110.269 610.354 110.621C608.882 110.973 607.282 111.149 605.554 111.149C602.898 111.149 600.466 110.589 598.258 109.469C596.05 108.349 594.13 106.717 592.498 104.573C590.898 102.397 589.65 99.7413 588.754 96.6053C587.858 93.4693 587.41 89.8853 587.41 85.8533C587.41 82.1733 587.906 78.7493 588.898 75.5813C589.922 72.4133 591.362 69.6773 593.218 67.3733C595.074 65.0693 597.314 63.2613 599.938 61.9493C602.562 60.6373 605.474 59.9813 608.674 59.9813C611.362 59.9813 613.618 60.3813 615.442 61.1813C617.298 61.9813 618.978 63.0693 620.482 64.4453V38.8613H633.73Z" fill="white"/>
<path d="M191.926 54.1253L192.781 54.6453L192.797 54.6181L192.812 54.59L191.926 54.1253ZM190.534 55.7573L191.116 56.5711L191.126 56.5637L190.534 55.7573ZM186.454 55.5173L185.915 56.3596L185.935 56.372L185.955 56.3835L186.454 55.5173ZM183.622 53.8853L184.09 53.0015L184.09 53.0015L183.622 53.8853ZM179.878 52.3013L179.537 53.2411L179.546 53.2446L179.556 53.2478L179.878 52.3013ZM167.446 53.7893L168.109 54.5384L168.117 54.5312L167.446 53.7893ZM166.294 63.4373L165.542 64.0958L165.553 64.1083L165.564 64.1205L166.294 63.4373ZM169.894 66.0293L169.447 66.9238L169.455 66.9275L169.894 66.0293ZM180.79 69.9173L180.456 70.8597L180.463 70.8622L180.47 70.8645L180.79 69.9173ZM191.638 75.8213L190.947 76.544L190.955 76.5513L191.638 75.8213ZM195.238 81.0053L194.322 81.4061L194.326 81.4148L194.33 81.4235L195.238 81.0053ZM194.95 97.3253L194.023 96.9521L194.021 96.9577L194.95 97.3253ZM190.198 104.573L190.9 105.286L190.906 105.28L190.198 104.573ZM182.47 109.421L182.111 108.488L182.108 108.49L182.47 109.421ZM165.478 110.525L165.277 111.505L165.28 111.505L165.478 110.525ZM159.142 108.653L158.774 109.583L158.779 109.585L159.142 108.653ZM153.43 105.773L153.96 104.925L153.96 104.925L153.43 105.773ZM148.726 102.029L147.876 101.503L147.464 102.168L148.011 102.728L148.726 102.029ZM152.95 95.2133L152.126 94.6468L152.113 94.6664L152.1 94.6866L152.95 95.2133ZM154.342 93.9653L154.828 94.8395L154.846 94.8294L154.864 94.8186L154.342 93.9653ZM158.902 94.3973L159.457 93.5653L159.457 93.5653L158.902 94.3973ZM162.214 96.5093L162.739 95.6577L162.739 95.6577L162.214 96.5093ZM166.534 98.6213L166.169 99.5523L166.175 99.5547L166.534 98.6213ZM180.262 97.2773L179.625 96.5069L179.618 96.5124L180.262 97.2773ZM181.654 86.1413L180.883 86.777L180.888 86.7837L180.894 86.7903L181.654 86.1413ZM173.062 81.5333L172.786 82.4942L172.793 82.4964L172.801 82.4985L173.062 81.5333ZM167.254 79.7573L167.561 78.8056L167.561 78.8056L167.254 79.7573ZM161.446 77.4533L161.018 78.3567L161.018 78.3567L161.446 77.4533ZM152.806 68.4293L151.882 68.8101L151.887 68.8216L152.806 68.4293ZM152.998 52.7813L152.077 52.3933L152.077 52.3933L152.998 52.7813ZM164.806 41.7413L164.439 40.8114L164.435 40.8128L164.806 41.7413ZM186.406 41.9813L186.06 42.9194L186.07 42.9231L186.406 41.9813ZM195.478 47.3573L196.364 47.822L196.718 47.1473L196.161 46.6269L195.478 47.3573ZM191.072 53.6054C190.664 54.2755 190.282 54.7027 189.943 54.9509L191.126 56.5637C191.747 56.1079 192.293 55.4471 192.781 54.6453L191.072 53.6054ZM189.953 54.9436C189.724 55.1076 189.355 55.2373 188.758 55.2373V57.2373C189.634 57.2373 190.449 57.047 191.116 56.5711L189.953 54.9436ZM188.758 55.2373C188.282 55.2373 187.687 55.0741 186.954 54.6511L185.955 56.3835C186.886 56.9205 187.827 57.2373 188.758 57.2373V55.2373ZM186.994 54.675C186.165 54.1447 185.196 53.5869 184.09 53.0015L183.155 54.7691C184.225 55.3358 185.144 55.866 185.915 56.3596L186.994 54.675ZM184.09 53.0015C182.947 52.3964 181.649 51.8485 180.201 51.3548L179.556 53.2478C180.924 53.7142 182.122 54.2223 183.155 54.7691L184.09 53.0015ZM180.22 51.3615C178.678 50.8009 176.91 50.5333 174.934 50.5333V52.5333C176.735 52.5333 178.263 52.7778 179.537 53.2411L180.22 51.3615ZM174.934 50.5333C171.476 50.5333 168.695 51.3126 166.776 53.0474L168.117 54.5312C169.526 53.258 171.737 52.5333 174.934 52.5333V50.5333ZM166.784 53.0403C164.887 54.7186 163.95 56.9368 163.95 59.5973H165.95C165.95 57.4579 166.678 55.804 168.109 54.5383L166.784 53.0403ZM163.95 59.5973C163.95 61.3422 164.466 62.8659 165.542 64.0958L167.047 62.7788C166.331 61.9607 165.95 60.9245 165.95 59.5973H163.95ZM165.564 64.1205C166.588 65.2153 167.891 66.1456 169.447 66.9237L170.342 65.1349C168.954 64.4411 167.857 63.6433 167.025 62.7542L165.564 64.1205ZM169.455 66.9275C171.014 67.6905 172.761 68.365 174.691 68.9538L175.274 67.0408C173.428 66.4777 171.783 65.8401 170.334 65.1311L169.455 66.9275ZM174.691 68.9538C176.563 69.5252 178.485 70.1604 180.456 70.8597L181.125 68.9749C179.128 68.2662 177.177 67.6215 175.274 67.0408L174.691 68.9538ZM180.47 70.8645C182.412 71.5225 184.308 72.3058 186.157 73.2148L187.04 71.4199C185.113 70.4728 183.137 69.6562 181.111 68.9702L180.47 70.8645ZM186.157 73.2148C187.957 74.0991 189.552 75.209 190.947 76.544L192.33 75.0987C190.781 73.6177 189.016 72.3915 187.04 71.4199L186.157 73.2148ZM190.955 76.5513C192.352 77.8589 193.476 79.4719 194.322 81.4061L196.155 80.6045C195.209 78.4428 193.933 76.5997 192.322 75.0913L190.955 76.5513ZM194.33 81.4235C195.182 83.2741 195.63 85.5866 195.63 88.3973H197.63C197.63 85.384 197.151 82.7685 196.147 80.5872L194.33 81.4235ZM195.63 88.3973C195.63 91.4447 195.092 94.2933 194.023 96.9521L195.878 97.6985C197.049 94.7894 197.63 91.686 197.63 88.3973H195.63ZM194.021 96.9577C192.982 99.5833 191.474 101.884 189.491 103.866L190.906 105.28C193.083 103.103 194.742 100.571 195.88 97.693L194.021 96.9577ZM189.497 103.861C187.526 105.801 185.071 107.347 182.111 108.488L182.83 110.354C186.014 109.127 188.711 107.442 190.9 105.286L189.497 103.861ZM182.108 108.49C179.203 109.621 175.873 110.197 172.102 110.197V112.197C176.076 112.197 179.658 111.59 182.833 110.353L182.108 108.49ZM172.102 110.197C169.963 110.197 167.821 109.98 165.677 109.545L165.28 111.505C167.552 111.966 169.826 112.197 172.102 112.197V110.197ZM165.68 109.546C163.559 109.109 161.501 108.501 159.506 107.722L158.779 109.585C160.88 110.406 163.046 111.046 165.277 111.505L165.68 109.546ZM159.511 107.724C157.55 106.945 155.7 106.013 153.96 104.925L152.9 106.621C154.745 107.774 156.703 108.761 158.774 109.583L159.511 107.724ZM153.96 104.925C152.229 103.843 150.725 102.644 149.442 101.331L148.011 102.728C149.416 104.166 151.048 105.463 152.9 106.621L153.96 104.925ZM149.576 102.556L153.8 95.7401L152.1 94.6866L147.876 101.503L149.576 102.556ZM153.775 95.7799C154.034 95.4028 154.379 95.0891 154.828 94.8395L153.857 93.0912C153.154 93.4815 152.571 93.9998 152.126 94.6468L153.775 95.7799ZM154.864 94.8186C155.292 94.5571 155.721 94.4373 156.166 94.4373V92.4373C155.332 92.4373 154.545 92.6696 153.821 93.112L154.864 94.8186ZM156.166 94.4373C156.777 94.4373 157.498 94.6629 158.348 95.2294L159.457 93.5653C158.387 92.8517 157.284 92.4373 156.166 92.4373V94.4373ZM158.348 95.2294C159.32 95.8776 160.435 96.5882 161.69 97.361L162.739 95.6577C161.498 94.8944 160.405 94.197 159.457 93.5653L158.348 95.2294ZM161.69 97.361C162.998 98.1654 164.493 98.8947 166.169 99.5523L166.9 97.6903C165.312 97.0679 163.927 96.3892 162.739 95.6577L161.69 97.361ZM166.175 99.5547C167.982 100.25 170.094 100.581 172.486 100.581V98.5813C170.271 98.5813 168.415 98.2731 166.893 97.688L166.175 99.5547ZM172.486 100.581C175.987 100.581 178.841 99.7818 180.907 98.0422L179.618 96.5124C178.036 97.8448 175.706 98.5813 172.486 98.5813V100.581ZM180.9 98.0477C183.044 96.2736 184.046 93.6665 184.046 90.4133H182.046C182.046 93.2401 181.193 95.209 179.625 96.5069L180.9 98.0477ZM184.046 90.4133C184.046 88.4724 183.531 86.8004 182.415 85.4924L180.894 86.7903C181.634 87.6582 182.046 88.8343 182.046 90.4133H184.046ZM182.426 85.5056C181.428 84.293 180.126 83.2991 178.55 82.5109L177.655 84.2997C179.023 84.9836 180.089 85.8136 180.883 86.777L182.426 85.5056ZM178.55 82.5109C177.008 81.7403 175.265 81.0944 173.324 80.5682L172.801 82.4985C174.636 82.9962 176.252 83.5983 177.655 84.2997L178.55 82.5109ZM173.339 80.5724C171.462 80.0315 169.536 79.4426 167.561 78.8056L166.947 80.709C168.941 81.3521 170.887 81.9471 172.786 82.4942L173.339 80.5724ZM167.561 78.8056C165.619 78.1791 163.724 77.4272 161.875 76.5499L161.018 78.3567C162.945 79.2714 164.922 80.0556 166.947 80.709L167.561 78.8056ZM161.875 76.5499C160.09 75.7027 158.504 74.585 157.114 73.1942L155.699 74.6084C157.253 76.1616 159.027 77.4119 161.018 78.3567L161.875 76.5499ZM157.114 73.1942C155.743 71.8241 154.611 70.1114 153.726 68.037L151.887 68.8216C152.858 71.0993 154.125 73.0346 155.699 74.6084L157.114 73.1942ZM153.731 68.0486C152.9 66.0294 152.462 63.4643 152.462 60.3173H150.462C150.462 63.6343 150.921 66.4773 151.882 68.8101L153.731 68.0486ZM152.462 60.3173C152.462 57.861 152.947 55.4808 153.92 53.1694L152.077 52.3933C151.002 54.9458 150.462 57.5896 150.462 60.3173H152.462ZM153.92 53.1694C154.889 50.8691 156.312 48.8225 158.2 47.0257L156.821 45.5769C154.741 47.5562 153.156 49.8295 152.077 52.3933L153.92 53.1694ZM158.2 47.0257C160.08 45.2362 162.4 43.7808 165.178 42.6698L164.435 40.8128C161.453 42.0058 158.909 43.5904 156.821 45.5769L158.2 47.0257ZM165.174 42.6712C167.949 41.5736 171.148 41.0133 174.79 41.0133V39.0133C170.945 39.0133 167.488 39.605 164.439 40.8114L165.174 42.6712ZM174.79 41.0133C178.877 41.0133 182.63 41.6525 186.06 42.9194L186.753 41.0433C183.079 39.6861 179.088 39.0133 174.79 39.0133V41.0133ZM186.07 42.9231C189.542 44.163 192.443 45.8884 194.795 48.0877L196.161 46.6269C193.586 44.2182 190.439 42.3597 186.743 41.0396L186.07 42.9231ZM194.593 46.8926L191.041 53.6606L192.812 54.59L196.364 47.822L194.593 46.8926ZM237.604 61.9493L237.241 62.8811L237.241 62.8811L237.604 61.9493ZM245.428 67.0373L244.715 67.7393L244.721 67.7444L245.428 67.0373ZM250.468 75.0053L251.403 74.6521L251.403 74.6521L250.468 75.0053ZM250.468 96.2693L251.403 96.6225L251.404 96.6194L250.468 96.2693ZM245.428 104.285L246.14 104.987L246.14 104.987L245.428 104.285ZM237.604 109.373L237.241 108.442L237.241 108.442L237.604 109.373ZM217.252 109.373L216.889 110.305L216.892 110.306L217.252 109.373ZM209.428 104.285L208.715 104.987L208.715 104.987L209.428 104.285ZM204.34 96.2693L203.403 96.6194L203.407 96.6308L204.34 96.2693ZM204.34 75.0053L203.407 74.6438L203.404 74.6521L204.34 75.0053ZM209.428 67.0373L210.135 67.7444L210.14 67.7392L209.428 67.0373ZM217.252 61.9493L216.892 61.0162L216.889 61.0175L217.252 61.9493ZM235.876 97.3253L236.694 97.9008L236.697 97.8961L235.876 97.3253ZM235.876 74.0933L235.055 74.6641L235.058 74.6688L235.876 74.0933ZM218.932 74.0933L219.75 74.6688L219.753 74.6641L218.932 74.0933ZM218.932 97.3253L218.111 97.8961L218.114 97.9008L218.932 97.3253ZM227.476 61.1733C231.081 61.1733 234.331 61.748 237.241 62.8811L237.967 61.0175C234.796 59.7827 231.295 59.1733 227.476 59.1733V61.1733ZM237.241 62.8811C240.156 64.0167 242.644 65.6369 244.715 67.7392L246.14 66.3354C243.86 64.0218 241.131 62.2499 237.967 61.0175L237.241 62.8811ZM244.721 67.7444C246.788 69.8113 248.394 72.3434 249.532 75.3585L251.403 74.6521C250.174 71.3953 248.42 68.6153 246.135 66.3302L244.721 67.7444ZM249.532 75.3585C250.667 78.3639 251.244 81.7774 251.244 85.6133H253.244C253.244 81.5773 252.637 77.9188 251.403 74.6521L249.532 75.3585ZM251.244 85.6133C251.244 89.449 250.667 92.8799 249.531 95.9192L251.404 96.6194C252.637 93.3227 253.244 89.6496 253.244 85.6133H251.244ZM249.532 95.9161C248.393 98.9323 246.786 101.483 244.715 103.583L246.14 104.987C248.422 102.672 250.174 99.8783 251.403 96.6225L249.532 95.9161ZM244.715 103.583C242.644 105.686 240.156 107.306 237.241 108.442L237.967 110.305C241.131 109.073 243.86 107.301 246.14 104.987L244.715 103.583ZM237.241 108.442C234.331 109.575 231.081 110.149 227.476 110.149V112.149C231.295 112.149 234.796 111.54 237.967 110.305L237.241 108.442ZM227.476 110.149C223.838 110.149 220.554 109.574 217.611 108.44L216.892 110.306C220.093 111.54 223.625 112.149 227.476 112.149V110.149ZM217.615 108.442C214.699 107.306 212.212 105.686 210.14 103.583L208.715 104.987C210.996 107.301 213.724 109.073 216.889 110.305L217.615 108.442ZM210.14 103.583C208.068 101.481 206.443 98.9274 205.272 95.9078L203.407 96.6308C204.668 99.8832 206.436 102.674 208.715 104.987L210.14 103.583ZM205.276 95.9192C204.141 92.8799 203.564 89.449 203.564 85.6133H201.564C201.564 89.6496 202.171 93.3227 203.403 96.6194L205.276 95.9192ZM203.564 85.6133C203.564 81.7774 204.141 78.3639 205.275 75.3585L203.404 74.6521C202.171 77.9188 201.564 81.5773 201.564 85.6133H203.564ZM205.272 75.3668C206.443 72.3483 208.066 69.8133 210.135 67.7444L208.721 66.3302C206.438 68.6133 204.669 71.3904 203.407 74.6438L205.272 75.3668ZM210.14 67.7392C212.212 65.6369 214.699 64.0167 217.615 62.8811L216.889 61.0175C213.724 62.2499 210.996 64.0218 208.715 66.3354L210.14 67.7392ZM217.611 62.8824C220.554 61.7483 223.838 61.1733 227.476 61.1733V59.1733C223.625 59.1733 220.093 59.7824 216.892 61.0162L217.611 62.8824ZM227.476 102.213C231.506 102.213 234.645 100.812 236.694 97.9008L235.058 96.7498C233.459 99.0225 230.997 100.213 227.476 100.213V102.213ZM236.697 97.8961C238.689 95.0303 239.612 90.903 239.612 85.6613H237.612C237.612 90.7236 236.711 94.3723 235.055 96.7545L236.697 97.8961ZM239.612 85.6613C239.612 80.4514 238.689 76.3533 236.694 73.5178L235.058 74.6688C236.711 77.0173 237.612 80.6312 237.612 85.6613H239.612ZM236.697 73.5225C234.65 70.5782 231.511 69.1573 227.476 69.1573V71.1573C230.992 71.1573 233.453 72.3605 235.055 74.6641L236.697 73.5225ZM227.476 69.1573C223.355 69.1573 220.162 70.5709 218.111 73.5225L219.753 74.6641C221.349 72.3677 223.852 71.1573 227.476 71.1573V69.1573ZM218.114 73.5178C216.119 76.3533 215.196 80.4514 215.196 85.6613H217.196C217.196 80.6312 218.097 77.0173 219.75 74.6688L218.114 73.5178ZM215.196 85.6613C215.196 90.903 216.119 95.0303 218.111 97.8961L219.753 96.7546C218.097 94.3723 217.196 90.7236 217.196 85.6613H215.196ZM218.114 97.9008C220.168 100.819 223.36 102.213 227.476 102.213V100.213C223.848 100.213 221.344 99.0153 219.75 96.7498L218.114 97.9008ZM304.002 60.9413H305.002V59.9413H304.002V60.9413ZM304.002 110.429V111.429H305.002V110.429H304.002ZM292.578 108.125L291.608 108.368L291.615 108.396L291.623 108.424L292.578 108.125ZM291.714 104.669L292.684 104.427L292.264 102.746L291.019 103.951L291.714 104.669ZM288.642 107.309L289.246 108.106L289.246 108.106L288.642 107.309ZM285.234 109.373L284.806 108.47L284.797 108.474L285.234 109.373ZM281.346 110.717L281.124 109.742L281.119 109.743L281.346 110.717ZM269.634 109.805L269.227 110.719L269.232 110.721L269.634 109.805ZM264.402 105.917L263.639 106.563L263.639 106.563L264.402 105.917ZM261.186 99.9653L260.233 100.27L260.233 100.27L261.186 99.9653ZM260.082 60.9413V59.9413H259.082V60.9413H260.082ZM273.33 60.9413H274.33V59.9413H273.33V60.9413ZM275.202 98.8133L274.426 99.4439L274.433 99.4528L274.44 99.4614L275.202 98.8133ZM286.098 99.8693L286.538 100.767L286.545 100.764L286.552 100.76L286.098 99.8693ZM290.754 96.5093L291.445 97.232L291.754 96.9366V96.5093H290.754ZM290.754 60.9413V59.9413H289.754V60.9413H290.754ZM303.002 60.9413V110.429H305.002V60.9413H303.002ZM304.002 109.429H295.842V111.429H304.002V109.429ZM295.842 109.429C295.144 109.429 294.665 109.272 294.331 109.036C294.001 108.804 293.721 108.43 293.532 107.827L291.623 108.424C291.915 109.356 292.419 110.135 293.177 110.67C293.931 111.202 294.844 111.429 295.842 111.429V109.429ZM293.548 107.883L292.684 104.427L290.744 104.912L291.608 108.368L293.548 107.883ZM291.019 103.951C290.054 104.884 289.061 105.738 288.038 106.512L289.246 108.106C290.335 107.281 291.39 106.375 292.409 105.388L291.019 103.951ZM288.038 106.512C287.038 107.27 285.961 107.923 284.806 108.47L285.662 110.277C286.939 109.672 288.134 108.949 289.246 108.106L288.038 106.512ZM284.797 108.474C283.688 109.014 282.465 109.438 281.124 109.742L281.568 111.692C283.043 111.357 284.412 110.885 285.671 110.273L284.797 108.474ZM281.119 109.743C279.828 110.044 278.401 110.197 276.834 110.197V112.197C278.531 112.197 280.112 112.031 281.572 111.691L281.119 109.743ZM276.834 110.197C274.262 110.197 272.002 109.754 270.036 108.89L269.232 110.721C271.49 111.713 274.03 112.197 276.834 112.197V110.197ZM270.041 108.892C268.092 108.022 266.472 106.815 265.165 105.271L263.639 106.563C265.148 108.347 267.016 109.732 269.227 110.719L270.041 108.892ZM265.165 105.271C263.851 103.718 262.839 101.854 262.139 99.661L260.233 100.27C261.005 102.685 262.137 104.788 263.639 106.563L265.165 105.271ZM262.139 99.661C261.438 97.4679 261.082 95.044 261.082 92.3813H259.082C259.082 95.2226 259.462 97.8547 260.233 100.27L262.139 99.661ZM261.082 92.3813V60.9413H259.082V92.3813H261.082ZM260.082 61.9413H273.33V59.9413H260.082V61.9413ZM272.33 60.9413V92.3813H274.33V60.9413H272.33ZM272.33 92.3813C272.33 95.2744 272.986 97.6713 274.426 99.4439L275.978 98.1827C274.922 96.8834 274.33 94.9923 274.33 92.3813H272.33ZM274.44 99.4614C275.959 101.245 278.16 102.069 280.866 102.069V100.069C278.58 100.069 277.005 99.3893 275.964 98.1652L274.44 99.4614ZM280.866 102.069C282.871 102.069 284.766 101.636 286.538 100.767L285.658 98.9714C284.166 99.7028 282.573 100.069 280.866 100.069V102.069ZM286.552 100.76C288.28 99.8793 289.911 98.6998 291.445 97.232L290.063 95.7867C288.653 97.1348 287.18 98.1953 285.644 98.9784L286.552 100.76ZM291.754 96.5093V60.9413H289.754V96.5093H291.754ZM290.754 61.9413H304.002V59.9413H290.754V61.9413ZM327.225 66.7013L326.252 66.9311L326.656 68.6435L327.92 67.4199L327.225 66.7013ZM330.297 64.0613L329.705 63.2557L329.699 63.2599L329.693 63.2642L330.297 64.0613ZM333.705 61.9973L333.277 61.0935L333.267 61.0981L333.705 61.9973ZM337.593 60.6533L337.371 59.6782L337.366 59.6793L337.593 60.6533ZM349.305 61.5653L348.898 62.4786L348.898 62.4786L349.305 61.5653ZM354.537 65.4533L353.774 66.0993L353.781 66.1077L354.537 65.4533ZM357.753 71.4053L356.797 71.6976L356.8 71.7096L357.753 71.4053ZM358.857 110.429V111.429H359.857V110.429H358.857ZM345.657 110.429H344.657V111.429H345.657V110.429ZM343.737 72.6053L342.969 73.2455L342.975 73.2534L343.737 72.6053ZM332.841 71.5013L332.401 70.6034L332.401 70.6034L332.841 71.5013ZM328.185 74.8613L327.486 74.1465L327.185 74.4407V74.8613H328.185ZM328.185 110.429V111.429H329.185V110.429H328.185ZM314.937 110.429H313.937V111.429H314.937V110.429ZM314.937 60.9413V59.9413H313.937V60.9413H314.937ZM326.409 63.2453L327.382 63.0155L327.37 62.9627L327.352 62.9115L326.409 63.2453ZM327.92 67.4199C328.885 66.4867 329.878 65.6331 330.901 64.8584L329.693 63.2642C328.604 64.0895 327.549 64.9959 326.53 65.9827L327.92 67.4199ZM330.889 64.867C331.93 64.1019 333.014 63.4454 334.142 62.8966L333.267 61.0981C332.028 61.7012 330.84 62.4208 329.705 63.2557L330.889 64.867ZM334.133 62.9011C335.281 62.3571 336.51 61.932 337.819 61.6273L337.366 59.6793C335.924 60.0147 334.561 60.4855 333.277 61.0936L334.133 62.9011ZM337.815 61.6285C339.141 61.327 340.586 61.1733 342.153 61.1733V59.1733C340.456 59.1733 338.861 59.3397 337.371 59.6782L337.815 61.6285ZM342.153 61.1733C344.726 61.1733 346.967 61.6171 348.898 62.4786L349.712 60.6521C347.483 59.6575 344.956 59.1733 342.153 59.1733V61.1733ZM348.898 62.4786C350.847 63.3482 352.467 64.5551 353.774 66.0993L355.3 64.8074C353.791 63.0235 351.923 61.6385 349.712 60.6521L348.898 62.4786ZM353.781 66.1077C355.121 67.6566 356.129 69.5141 356.797 71.6975L358.709 71.1131C357.968 68.6885 356.833 66.578 355.293 64.7989L353.781 66.1077ZM356.8 71.7096C357.501 73.9027 357.857 76.3266 357.857 78.9893H359.857C359.857 76.148 359.477 73.5159 358.706 71.101L356.8 71.7096ZM357.857 78.9893V110.429H359.857V78.9893H357.857ZM358.857 109.429H345.657V111.429H358.857V109.429ZM346.657 110.429V78.9893H344.657V110.429H346.657ZM346.657 78.9893C346.657 76.0926 345.983 73.702 344.499 71.9572L342.975 73.2534C344.05 74.5166 344.657 76.382 344.657 78.9893H346.657ZM344.505 71.9651C342.989 70.1459 340.785 69.3013 338.073 69.3013V71.3013C340.352 71.3013 341.925 71.9927 342.969 73.2455L344.505 71.9651ZM338.073 69.3013C336.068 69.3013 334.173 69.7348 332.401 70.6034L333.281 72.3992C334.773 71.6679 336.366 71.3013 338.073 71.3013V69.3013ZM332.401 70.6034C330.661 71.456 329.024 72.6418 327.486 74.1465L328.884 75.5762C330.29 74.2008 331.756 73.1466 333.281 72.3992L332.401 70.6034ZM327.185 74.8613V110.429H329.185V74.8613H327.185ZM328.185 109.429H314.937V111.429H328.185V109.429ZM315.937 110.429V60.9413H313.937V110.429H315.937ZM314.937 61.9413H323.097V59.9413H314.937V61.9413ZM323.097 61.9413C323.774 61.9413 324.254 62.0959 324.602 62.3382C324.948 62.5793 325.249 62.9658 325.466 63.5792L327.352 62.9115C327.025 61.9888 326.501 61.2233 325.744 60.6964C324.988 60.1707 324.084 59.9413 323.097 59.9413V61.9413ZM325.436 63.4751L326.252 66.9311L328.198 66.4715L327.382 63.0155L325.436 63.4751ZM399.982 73.8053H400.982V73.4323L400.737 73.1504L399.982 73.8053ZM395.902 70.7813L395.53 71.7098L395.537 71.7126L395.902 70.7813ZM383.518 73.7093L382.711 73.1188L382.708 73.1224L383.518 73.7093ZM381.358 78.6533L380.388 78.4072L380.388 78.4072L381.358 78.6533ZM382.99 97.5173L382.151 98.0615L382.156 98.0694L382.161 98.0772L382.99 97.5173ZM385.87 100.109L385.433 101.009L385.443 101.014L385.454 101.019L385.87 100.109ZM395.47 99.4853L394.968 98.6203L394.96 98.6247L395.47 99.4853ZM399.982 95.5493L400.751 96.1881L400.982 95.9103V95.5493H399.982ZM413.23 38.8613H414.23V37.8613H413.23V38.8613ZM413.23 110.429V111.429H414.23V110.429H413.23ZM401.806 108.125L400.837 108.373L400.843 108.398L400.851 108.424L401.806 108.125ZM400.702 103.805L401.671 103.558L401.212 101.762L399.963 103.132L400.702 103.805ZM397.534 106.781L396.909 106L396.903 106.005L396.898 106.009L397.534 106.781ZM393.982 109.133L394.429 110.028L394.438 110.023L394.447 110.019L393.982 109.133ZM371.998 104.573L371.192 105.166L371.197 105.172L371.202 105.179L371.998 104.573ZM368.254 96.6053L369.215 96.3306L368.254 96.6053ZM368.398 75.5813L367.446 75.2737L367.443 75.2825L368.398 75.5813ZM372.718 67.3733L373.496 68.0007L373.496 68.0006L372.718 67.3733ZM379.438 61.9493L379.885 62.8437L379.885 62.8437L379.438 61.9493ZM394.942 61.1813L394.54 62.0971L394.546 62.0996L394.942 61.1813ZM399.982 64.4453L399.307 65.1831L400.982 66.7156V64.4453H399.982ZM399.982 38.8613V37.8613H398.982V38.8613H399.982ZM400.737 73.1504C399.405 71.6129 397.917 70.4961 396.266 69.8501L395.537 71.7126C396.83 72.2186 398.063 73.1177 399.226 74.4603L400.737 73.1504ZM396.273 69.8528C394.709 69.2272 393.046 68.9173 391.294 68.9173V70.9173C392.805 70.9173 394.215 71.1835 395.53 71.7098L396.273 69.8528ZM391.294 68.9173C389.564 68.9173 387.962 69.2467 386.505 69.922L387.346 71.7366C388.513 71.1959 389.823 70.9173 391.294 70.9173V68.9173ZM386.505 69.922C385.021 70.6097 383.758 71.6875 382.711 73.1188L384.325 74.2998C385.197 73.1072 386.206 72.265 387.346 71.7366L386.505 69.922ZM382.708 73.1224C381.686 74.5316 380.922 76.3052 380.388 78.4072L382.327 78.8995C382.817 76.9695 383.493 75.4471 384.327 74.2963L382.708 73.1224ZM380.388 78.4072C379.851 80.5255 379.59 83.0124 379.59 85.8533H381.59C381.59 83.1263 381.841 80.8132 382.327 78.8995L380.388 78.4072ZM379.59 85.8533C379.59 88.6505 379.801 91.062 380.236 93.0731L382.191 92.6496C381.795 90.8206 381.59 88.5601 381.59 85.8533H379.59ZM380.236 93.0731C380.669 95.0684 381.297 96.7447 382.151 98.0615L383.829 96.9731C383.147 95.922 382.591 94.4943 382.191 92.6496L380.236 93.0731ZM382.161 98.0772C383.045 99.385 384.133 100.377 385.433 101.009L386.307 99.2098C385.367 98.7534 384.535 98.0176 383.818 96.9575L382.161 98.0772ZM385.454 101.019C386.719 101.597 388.111 101.877 389.614 101.877V99.8773C388.364 99.8773 387.26 99.6455 386.285 99.1998L385.454 101.019ZM389.614 101.877C392.079 101.877 394.219 101.388 395.979 100.346L394.96 98.6247C393.584 99.4391 391.82 99.8773 389.614 99.8773V101.877ZM395.971 100.35C397.691 99.3532 399.282 97.9577 400.751 96.1881L399.212 94.9106C397.865 96.5329 396.449 97.7615 394.968 98.6203L395.971 100.35ZM400.982 95.5493V73.8053H398.982V95.5493H400.982ZM412.23 38.8613V110.429H414.23V38.8613H412.23ZM413.23 109.429H405.07V111.429H413.23V109.429ZM405.07 109.429C404.372 109.429 403.893 109.272 403.558 109.036C403.229 108.804 402.949 108.43 402.76 107.827L400.851 108.424C401.143 109.356 401.647 110.135 402.405 110.67C403.159 111.202 404.072 111.429 405.07 111.429V109.429ZM402.775 107.878L401.671 103.558L399.733 104.053L400.837 108.373L402.775 107.878ZM399.963 103.132C399.005 104.182 397.987 105.138 396.909 106L398.158 107.562C399.32 106.633 400.414 105.605 401.441 104.479L399.963 103.132ZM396.898 106.009C395.864 106.861 394.738 107.607 393.517 108.248L394.447 110.019C395.786 109.316 397.027 108.494 398.169 107.553L396.898 106.009ZM393.535 108.239C392.327 108.843 391.023 109.313 389.621 109.649L390.086 111.594C391.628 111.225 393.077 110.704 394.429 110.028L393.535 108.239ZM389.621 109.649C388.235 109.98 386.714 110.149 385.054 110.149V112.149C386.849 112.149 388.528 111.966 390.086 111.594L389.621 109.649ZM385.054 110.149C382.543 110.149 380.268 109.621 378.21 108.577L377.305 110.361C379.664 111.557 382.252 112.149 385.054 112.149V110.149ZM378.21 108.577C376.148 107.532 374.342 106.002 372.793 103.968L371.202 105.179C372.917 107.432 374.951 109.167 377.305 110.361L378.21 108.577ZM372.803 103.981C371.287 101.918 370.085 99.3753 369.215 96.3306L367.292 96.88C368.214 100.107 369.509 102.876 371.192 105.166L372.803 103.981ZM369.215 96.3306C368.35 93.3021 367.91 89.8134 367.91 85.8533H365.91C365.91 89.9573 366.365 93.6366 367.292 96.88L369.215 96.3306ZM367.91 85.8533C367.91 82.2638 368.393 78.9416 369.352 75.8801L367.443 75.2825C366.418 78.5571 365.91 82.0829 365.91 85.8533H367.91ZM369.349 75.8889C370.34 72.8227 371.726 70.1983 373.496 68.0007L371.939 66.746C369.997 69.1563 368.503 72.004 367.446 75.2738L369.349 75.8889ZM373.496 68.0006C375.263 65.8075 377.39 64.091 379.885 62.8437L378.991 61.0549C376.237 62.4317 373.884 64.3312 371.939 66.746L373.496 68.0006ZM379.885 62.8437C382.358 61.6073 385.115 60.9813 388.174 60.9813V58.9813C384.833 58.9813 381.766 59.6673 378.991 61.0549L379.885 62.8437ZM388.174 60.9813C390.769 60.9813 392.879 61.3684 394.54 62.0971L395.343 60.2655C393.357 59.3942 390.954 58.9813 388.174 58.9813V60.9813ZM394.546 62.0996C396.299 62.8551 397.884 63.8818 399.307 65.1831L400.657 63.7075C399.071 62.2568 397.297 61.1076 395.338 60.263L394.546 62.0996ZM400.982 64.4453V38.8613H398.982V64.4453H400.982ZM399.982 39.8613H413.23V37.8613H399.982V39.8613ZM427.849 110.429H426.849V111.429H427.849V110.429ZM427.849 70.4453H428.849V69.6051L428.022 69.4603L427.849 70.4453ZM424.009 69.7733L423.819 70.7551L423.828 70.7568L423.837 70.7583L424.009 69.7733ZM421.561 68.7173L420.917 69.4822L420.927 69.4903L420.937 69.4982L421.561 68.7173ZM420.649 61.2293V60.2293H419.649V61.2293H420.649ZM427.849 61.2293V62.2293H428.849V61.2293H427.849ZM429.145 50.3333L428.213 49.9709L428.211 49.9779L429.145 50.3333ZM432.937 44.5253L433.63 45.2465L433.638 45.2394L432.937 44.5253ZM438.937 40.8293L439.28 41.7687L439.28 41.7687L438.937 40.8293ZM450.217 39.7733L450.063 40.7613L450.08 40.764L450.097 40.766L450.217 39.7733ZM453.385 40.3973L454.384 40.4414L454.42 39.6429L453.649 39.4326L453.385 40.3973ZM453.097 46.9253L454.095 46.9897L454.096 46.9796L454.096 46.9694L453.097 46.9253ZM451.801 48.8933L452.153 49.8296L452.163 49.8258L452.173 49.8218L451.801 48.8933ZM445.561 49.7573L445.306 48.7906L445.298 48.7926L445.561 49.7573ZM442.873 51.2453L443.548 51.9838L443.556 51.976L443.565 51.968L442.873 51.2453ZM441.193 54.0293L442.142 54.3456L442.145 54.3378L441.193 54.0293ZM440.617 61.2293H439.617V62.2293H440.617V61.2293ZM452.905 61.2293H453.905V60.2293H452.905V61.2293ZM452.905 70.4453V71.4453H453.905V70.4453H452.905ZM441.049 70.4453V69.4453H440.049V70.4453H441.049ZM441.049 110.429V111.429H442.049V110.429H441.049ZM428.849 110.429V70.4453H426.849V110.429H428.849ZM428.022 69.4603L424.182 68.7883L423.837 70.7583L427.677 71.4303L428.022 69.4603ZM424.199 68.7915C423.33 68.6233 422.674 68.3264 422.186 67.9365L420.937 69.4982C421.729 70.1323 422.705 70.5394 423.819 70.7551L424.199 68.7915ZM422.206 67.9524C421.87 67.6699 421.649 67.2417 421.649 66.5093H419.649C419.649 67.697 420.037 68.7407 420.917 69.4822L422.206 67.9524ZM421.649 66.5093V61.2293H419.649V66.5093H421.649ZM420.649 62.2293H427.849V60.2293H420.649V62.2293ZM428.849 61.2293V57.9653H426.849V61.2293H428.849ZM428.849 57.9653C428.849 55.2518 429.266 52.8308 430.08 50.6888L428.211 49.9779C427.297 52.3799 426.849 55.0468 426.849 57.9653H428.849ZM430.077 50.6958C430.926 48.5146 432.113 46.7047 433.63 45.2464L432.245 43.8042C430.498 45.482 429.157 47.544 428.213 49.9709L430.077 50.6958ZM433.638 45.2394C435.158 43.7489 437.032 42.589 439.28 41.7687L438.595 39.8899C436.107 40.7976 433.981 42.1017 432.237 43.8112L433.638 45.2394ZM439.28 41.7687C441.521 40.9513 444.074 40.5333 446.953 40.5333V38.5333C443.881 38.5333 441.09 38.9793 438.595 39.8899L439.28 41.7687ZM446.953 40.5333C448.059 40.5333 449.095 40.6101 450.063 40.7613L450.372 38.7853C449.291 38.6165 448.152 38.5333 446.953 38.5333V40.5333ZM450.097 40.766C451.104 40.888 452.112 41.0865 453.122 41.3621L453.649 39.4326C452.547 39.1321 451.443 38.9146 450.338 38.7806L450.097 40.766ZM452.386 40.3532L452.098 46.8812L454.096 46.9694L454.384 40.4414L452.386 40.3532ZM452.1 46.8609C452.076 47.2289 451.989 47.462 451.89 47.6113C451.798 47.7522 451.66 47.873 451.43 47.9648L452.173 49.8218C452.743 49.5937 453.221 49.2264 453.561 48.7113C453.894 48.2047 454.055 47.6137 454.095 46.9897L452.1 46.8609ZM451.45 47.957C450.812 48.1964 450.07 48.3253 449.209 48.3253V50.3253C450.269 50.3253 451.255 50.1663 452.153 49.8296L451.45 47.957ZM449.209 48.3253C447.795 48.3253 446.491 48.4767 445.306 48.7906L445.817 50.724C446.808 50.4619 447.936 50.3253 449.209 50.3253V48.3253ZM445.298 48.7926C444.094 49.121 443.047 49.6951 442.182 50.5227L443.565 51.968C444.171 51.3876 444.917 50.9696 445.825 50.7221L445.298 48.7926ZM442.199 50.5068C441.307 51.3214 440.667 52.4124 440.242 53.7208L442.145 54.3378C442.488 53.2782 442.968 52.5132 443.548 51.9838L442.199 50.5068ZM440.245 53.7131C439.816 55.0002 439.617 56.5554 439.617 58.3493H441.617C441.617 56.6872 441.803 55.3625 442.142 54.3455L440.245 53.7131ZM439.617 58.3493V61.2293H441.617V58.3493H439.617ZM440.617 62.2293H452.905V60.2293H440.617V62.2293ZM451.905 61.2293V70.4453H453.905V61.2293H451.905ZM452.905 69.4453H441.049V71.4453H452.905V69.4453ZM440.049 70.4453V110.429H442.049V70.4453H440.049ZM441.049 109.429H427.849V111.429H441.049V109.429ZM472.663 60.9413H473.663V59.9413H472.663V60.9413ZM472.663 110.429V111.429H473.663V110.429H472.663ZM459.415 110.429H458.415V111.429H459.415V110.429ZM459.415 60.9413V59.9413H458.415V60.9413H459.415ZM471.751 52.5413L471.059 51.8193L471.051 51.8267L471.044 51.8342L471.751 52.5413ZM469.111 54.2693L468.734 53.3428L468.724 53.3471L469.111 54.2693ZM462.775 54.2693L462.377 55.1869L462.388 55.1915L462.775 54.2693ZM460.231 52.5413L460.938 51.8342L460.938 51.8342L460.231 52.5413ZM458.455 49.9973L457.537 50.3949L457.543 50.4076L457.549 50.4202L458.455 49.9973ZM458.455 43.7573L457.543 43.3457L457.54 43.3527L457.537 43.3597L458.455 43.7573ZM460.231 41.1653L460.938 41.8724L460.938 41.8724L460.231 41.1653ZM462.775 39.4373L462.388 38.5151L462.377 38.5198L462.775 39.4373ZM469.111 39.4373L468.724 40.3596L468.734 40.3638L469.111 39.4373ZM471.751 41.1653L471.044 41.8724L471.051 41.8799L471.059 41.8873L471.751 41.1653ZM473.575 43.7573L472.663 44.1689L472.669 44.1802L473.575 43.7573ZM471.663 60.9413V110.429H473.663V60.9413H471.663ZM472.663 109.429H459.415V111.429H472.663V109.429ZM460.415 110.429V60.9413H458.415V110.429H460.415ZM459.415 61.9413H472.663V59.9413H459.415V61.9413ZM473.247 46.8773C473.247 47.8597 473.051 48.7544 472.669 49.5744L474.481 50.4202C474.994 49.3203 475.247 48.1349 475.247 46.8773H473.247ZM472.669 49.5744C472.273 50.4219 471.738 51.1686 471.059 51.8193L472.443 53.2633C473.3 52.4421 473.98 51.4928 474.481 50.4202L472.669 49.5744ZM471.044 51.8342C470.408 52.47 469.642 52.974 468.734 53.3429L469.487 55.1958C470.627 54.7327 471.622 54.0847 472.458 53.2484L471.044 51.8342ZM468.724 53.3471C467.863 53.7082 466.923 53.8933 465.895 53.8933V55.8933C467.17 55.8933 468.374 55.6624 469.497 55.1915L468.724 53.3471ZM465.895 53.8933C464.938 53.8933 464.03 53.7112 463.161 53.3471L462.388 55.1915C463.504 55.6595 464.675 55.8933 465.895 55.8933V53.8933ZM463.172 53.3518C462.327 52.9855 461.584 52.4807 460.938 51.8342L459.524 53.2484C460.349 54.0739 461.302 54.7211 462.377 55.1869L463.172 53.3518ZM460.938 51.8342C460.286 51.1821 459.761 50.4307 459.361 49.5744L457.549 50.4202C458.045 51.4839 458.704 52.4285 459.524 53.2484L460.938 51.8342ZM459.372 49.5997C459.014 48.7739 458.831 47.8703 458.831 46.8773H456.831C456.831 48.1243 457.063 49.3008 457.537 50.3949L459.372 49.5997ZM458.831 46.8773C458.831 45.8843 459.014 44.9808 459.372 44.1549L457.537 43.3597C457.063 44.4539 456.831 45.6303 456.831 46.8773H458.831ZM459.366 44.1689C459.767 43.2818 460.291 42.5192 460.938 41.8724L459.524 40.4582C458.698 41.2834 458.039 42.2488 457.543 43.3457L459.366 44.1689ZM460.938 41.8724C461.584 41.2259 462.327 40.7211 463.172 40.3549L462.377 38.5198C461.302 38.9855 460.349 39.6327 459.524 40.4582L460.938 41.8724ZM463.161 40.3595C464.03 39.9955 464.938 39.8133 465.895 39.8133V37.8133C464.675 37.8133 463.504 38.0472 462.388 38.5151L463.161 40.3595ZM465.895 39.8133C466.923 39.8133 467.863 39.9984 468.724 40.3595L469.497 38.5151C468.374 38.0442 467.17 37.8133 465.895 37.8133V39.8133ZM468.734 40.3638C469.642 40.7327 470.408 41.2367 471.044 41.8724L472.458 40.4582C471.622 39.622 470.627 38.974 469.487 38.5109L468.734 40.3638ZM471.059 41.8873C471.732 42.5327 472.267 43.2907 472.663 44.1689L474.486 43.3457C473.987 42.24 473.305 41.2699 472.443 40.4433L471.059 41.8873ZM472.669 44.1802C473.051 45.0003 473.247 45.8949 473.247 46.8773H475.247C475.247 45.6197 474.994 44.4344 474.481 43.3344L472.669 44.1802ZM515.36 79.8533V80.8533H516.36V79.8533H515.36ZM514.784 75.9173L513.822 76.1888L513.825 76.2001L513.828 76.2114L514.784 75.9173ZM513.056 72.6053L512.288 73.2455L512.288 73.2455L513.056 72.6053ZM510.032 70.3493L509.604 71.2531L509.614 71.2577L509.624 71.2621L510.032 70.3493ZM494.72 79.8533L493.733 79.692L493.543 80.8533H494.72V79.8533ZM494.528 87.7253V86.7253H493.435L493.532 87.8146L494.528 87.7253ZM498.464 97.9013L497.768 98.6188L497.773 98.6237L498.464 97.9013ZM511.904 100.493L512.206 101.447L512.213 101.444L512.22 101.442L511.904 100.493ZM515.408 99.0533L515.867 99.942L515.877 99.9364L515.408 99.0533ZM518.144 97.6133L518.606 98.5005L518.612 98.4972L518.618 98.4938L518.144 97.6133ZM522.992 98.0933L522.192 98.6933L522.202 98.7058L522.211 98.718L522.992 98.0933ZM526.832 102.893L527.589 103.547L528.132 102.917L527.613 102.269L526.832 102.893ZM522.176 106.973L522.705 107.822L522.716 107.815L522.176 106.973ZM516.896 109.517L517.212 110.466L517.22 110.464L517.227 110.461L516.896 109.517ZM511.376 110.765L511.256 109.773L511.248 109.774L511.24 109.775L511.376 110.765ZM496.304 109.469L495.943 110.402L495.955 110.406L496.304 109.469ZM488.48 104.429L487.768 105.131L487.773 105.136L487.778 105.141L488.48 104.429ZM483.248 96.1253L482.316 96.4873L482.316 96.4873L483.248 96.1253ZM482.96 75.1493L482.024 74.7971L482.021 74.806L482.96 75.1493ZM487.76 67.3733L488.488 68.059L488.488 68.059L487.76 67.3733ZM495.344 62.1413L495.739 63.06L495.748 63.0563L495.344 62.1413ZM514.16 61.7093L513.8 62.6424L513.807 62.645L513.814 62.6475L514.16 61.7093ZM521.072 66.0773L520.365 66.7845L520.371 66.7902L521.072 66.0773ZM525.584 73.1813L524.648 73.5325L524.653 73.5453L525.584 73.1813ZM526.592 86.7173L527.456 87.2212L527.456 87.2212L526.592 86.7173ZM525.68 87.5333L525.996 88.482L526.031 88.4704L526.065 88.4564L525.68 87.5333ZM516.36 79.8533C516.36 78.383 516.155 76.9715 515.74 75.6232L513.828 76.2114C514.182 77.3591 514.36 78.5716 514.36 79.8533H516.36ZM515.747 75.6459C515.358 74.2679 514.718 73.0371 513.824 71.9651L512.288 73.2455C512.995 74.0935 513.506 75.0708 513.822 76.1888L515.747 75.6459ZM513.824 71.9651C512.92 70.8804 511.786 70.0386 510.441 69.4365L509.624 71.2621C510.71 71.7481 511.592 72.4103 512.288 73.2455L513.824 71.9651ZM510.46 69.4456C509.08 68.7919 507.471 68.4853 505.664 68.4853V70.4853C507.25 70.4853 508.552 70.7547 509.604 71.2531L510.46 69.4456ZM505.664 68.4853C502.301 68.4853 499.541 69.4424 497.517 71.4662L498.931 72.8804C500.491 71.3203 502.691 70.4853 505.664 70.4853V68.4853ZM497.517 71.4662C495.535 73.4484 494.3 76.2249 493.733 79.692L495.707 80.0146C496.228 76.8258 497.329 74.4823 498.931 72.8804L497.517 71.4662ZM494.72 80.8533H515.36V78.8533H494.72V80.8533ZM493.532 87.8146C493.959 92.575 495.319 96.2407 497.768 98.6187L499.161 97.1839C497.194 95.274 495.929 92.1556 495.524 87.636L493.532 87.8146ZM497.773 98.6237C500.228 100.974 503.402 102.117 507.2 102.117V100.117C503.831 100.117 501.181 99.117 499.156 97.1789L497.773 98.6237ZM507.2 102.117C509.096 102.117 510.771 101.902 512.206 101.447L511.602 99.5401C510.414 99.9169 508.953 100.117 507.2 100.117V102.117ZM512.22 101.442C513.601 100.982 514.819 100.483 515.867 99.9419L514.95 98.1647C514.014 98.6477 512.895 99.1088 511.588 99.5446L512.22 101.442ZM515.877 99.9364C516.899 99.3934 517.809 98.9149 518.606 98.5005L517.683 96.7261C516.88 97.1438 515.965 97.6252 514.939 98.1702L515.877 99.9364ZM518.618 98.4938C519.331 98.11 519.985 97.9413 520.592 97.9413V95.9413C519.599 95.9413 518.621 96.2206 517.67 96.7328L518.618 98.4938ZM520.592 97.9413C521.326 97.9413 521.819 98.196 522.192 98.6933L523.792 97.4933C523.013 96.4546 521.907 95.9413 520.592 95.9413V97.9413ZM522.211 98.718L526.051 103.518L527.613 102.269L523.773 97.4686L522.211 98.718ZM526.075 102.24C524.726 103.804 523.246 105.099 521.636 106.132L522.716 107.815C524.499 106.671 526.123 105.246 527.589 103.547L526.075 102.24ZM521.648 106.124C520.012 107.143 518.318 107.959 516.565 108.574L517.227 110.461C519.123 109.796 520.949 108.916 522.705 107.822L521.648 106.124ZM516.58 108.569C514.818 109.156 513.044 109.557 511.256 109.773L511.496 111.758C513.421 111.526 515.326 111.095 517.212 110.466L516.58 108.569ZM511.24 109.775C509.425 110.025 507.679 110.149 506 110.149V112.149C507.778 112.149 509.615 112.018 511.513 111.756L511.24 109.775ZM506 110.149C502.654 110.149 499.541 109.608 496.653 108.532L495.955 110.406C499.083 111.571 502.434 112.149 506 112.149V110.149ZM496.665 108.537C493.815 107.433 491.323 105.828 489.182 103.717L487.778 105.141C490.117 107.447 492.842 109.201 495.943 110.402L496.665 108.537ZM489.192 103.727C487.091 101.596 485.417 98.9479 484.18 95.7633L482.316 96.4873C483.639 99.8947 485.453 102.783 487.768 105.131L489.192 103.727ZM484.18 95.7633C482.954 92.606 482.328 88.9091 482.328 84.6533H480.328C480.328 89.1015 480.982 93.0527 482.316 96.4873L484.18 95.7633ZM482.328 84.6533C482.328 81.4033 482.854 78.3522 483.899 75.4927L482.021 74.806C480.89 77.8985 480.328 81.1833 480.328 84.6533H482.328ZM483.896 75.5015C484.972 72.6433 486.503 70.1661 488.488 68.059L487.032 66.6876C484.857 68.9965 483.189 71.7033 482.024 74.7971L483.896 75.5015ZM488.488 68.059C490.468 65.9573 492.88 64.2896 495.739 63.06L494.949 61.2227C491.856 62.553 489.212 64.3734 487.032 66.6876L488.488 68.059ZM495.748 63.0563C498.579 61.8082 501.798 61.1733 505.424 61.1733V59.1733C501.562 59.1733 498.062 59.8504 494.941 61.2263L495.748 63.0563ZM505.424 61.1733C508.483 61.1733 511.272 61.6673 513.8 62.6424L514.52 60.7763C511.737 59.7033 508.701 59.1733 505.424 59.1733V61.1733ZM513.814 62.6475C516.374 63.5923 518.553 64.9722 520.365 66.7844L521.779 65.3702C519.752 63.3424 517.322 61.8104 514.506 60.7712L513.814 62.6475ZM520.371 66.7902C522.209 68.5985 523.638 70.8392 524.648 73.5324L526.521 72.8302C525.419 69.8915 523.839 67.3961 521.773 65.3644L520.371 66.7902ZM524.653 73.5453C525.687 76.1927 526.216 79.2497 526.216 82.7333H528.216C528.216 79.049 527.657 75.7379 526.516 72.8173L524.653 73.5453ZM526.216 82.7333C526.216 83.6989 526.169 84.4606 526.083 85.033L528.061 85.3297C528.167 84.622 528.216 83.7518 528.216 82.7333H526.216ZM526.083 85.033C525.998 85.5998 525.866 85.9768 525.728 86.2135L527.456 87.2212C527.766 86.6898 527.954 86.0428 528.061 85.3297L526.083 85.033ZM525.728 86.2134C525.606 86.423 525.464 86.54 525.296 86.6102L526.065 88.4564C526.664 88.2067 527.13 87.7796 527.456 87.2212L525.728 86.2134ZM525.364 86.5846C525.119 86.6661 524.741 86.7253 524.192 86.7253V88.7253C524.859 88.7253 525.473 88.6565 525.996 88.482L525.364 86.5846ZM524.192 86.7253H494.528V88.7253H524.192V86.7253ZM547.725 66.7013L546.752 66.9311L547.156 68.6435L548.42 67.4199L547.725 66.7013ZM550.797 64.0613L550.205 63.2557L550.199 63.2599L550.193 63.2642L550.797 64.0613ZM554.205 61.9973L553.777 61.0935L553.767 61.0981L554.205 61.9973ZM558.093 60.6533L557.871 59.6782L557.866 59.6793L558.093 60.6533ZM569.805 61.5653L569.398 62.4786L569.398 62.4786L569.805 61.5653ZM575.037 65.4533L574.274 66.0993L574.281 66.1077L575.037 65.4533ZM578.253 71.4053L577.297 71.6976L577.3 71.7096L578.253 71.4053ZM579.357 110.429V111.429H580.357V110.429H579.357ZM566.157 110.429H565.157V111.429H566.157V110.429ZM564.237 72.6053L563.469 73.2455L563.475 73.2534L564.237 72.6053ZM553.341 71.5013L552.901 70.6034L552.901 70.6034L553.341 71.5013ZM548.685 74.8613L547.986 74.1465L547.685 74.4407V74.8613H548.685ZM548.685 110.429V111.429H549.685V110.429H548.685ZM535.437 110.429H534.437V111.429H535.437V110.429ZM535.437 60.9413V59.9413H534.437V60.9413H535.437ZM546.909 63.2453L547.882 63.0155L547.87 62.9627L547.852 62.9115L546.909 63.2453ZM548.42 67.4199C549.385 66.4867 550.378 65.6331 551.401 64.8584L550.193 63.2642C549.104 64.0895 548.049 64.9959 547.03 65.9827L548.42 67.4199ZM551.389 64.867C552.43 64.1019 553.514 63.4454 554.642 62.8966L553.767 61.0981C552.528 61.7012 551.34 62.4208 550.205 63.2557L551.389 64.867ZM554.633 62.9011C555.781 62.3571 557.01 61.932 558.319 61.6273L557.866 59.6793C556.424 60.0147 555.061 60.4855 553.777 61.0936L554.633 62.9011ZM558.315 61.6285C559.641 61.327 561.086 61.1733 562.653 61.1733V59.1733C560.956 59.1733 559.361 59.3397 557.871 59.6782L558.315 61.6285ZM562.653 61.1733C565.226 61.1733 567.467 61.6171 569.398 62.4786L570.212 60.6521C567.983 59.6575 565.456 59.1733 562.653 59.1733V61.1733ZM569.398 62.4786C571.347 63.3482 572.967 64.5551 574.274 66.0993L575.8 64.8074C574.291 63.0235 572.423 61.6385 570.212 60.6521L569.398 62.4786ZM574.281 66.1077C575.621 67.6566 576.629 69.5141 577.297 71.6975L579.209 71.1131C578.468 68.6885 577.333 66.578 575.793 64.7989L574.281 66.1077ZM577.3 71.7096C578.001 73.9027 578.357 76.3266 578.357 78.9893H580.357C580.357 76.148 579.977 73.5159 579.206 71.101L577.3 71.7096ZM578.357 78.9893V110.429H580.357V78.9893H578.357ZM579.357 109.429H566.157V111.429H579.357V109.429ZM567.157 110.429V78.9893H565.157V110.429H567.157ZM567.157 78.9893C567.157 76.0926 566.483 73.702 564.999 71.9572L563.475 73.2534C564.55 74.5166 565.157 76.382 565.157 78.9893H567.157ZM565.005 71.9651C563.489 70.1459 561.285 69.3013 558.573 69.3013V71.3013C560.852 71.3013 562.425 71.9927 563.469 73.2455L565.005 71.9651ZM558.573 69.3013C556.568 69.3013 554.673 69.7348 552.901 70.6034L553.781 72.3992C555.273 71.6679 556.866 71.3013 558.573 71.3013V69.3013ZM552.901 70.6034C551.161 71.456 549.524 72.6418 547.986 74.1465L549.384 75.5762C550.79 74.2008 552.256 73.1466 553.781 72.3992L552.901 70.6034ZM547.685 74.8613V110.429H549.685V74.8613H547.685ZM548.685 109.429H535.437V111.429H548.685V109.429ZM536.437 110.429V60.9413H534.437V110.429H536.437ZM535.437 61.9413H543.597V59.9413H535.437V61.9413ZM543.597 61.9413C544.274 61.9413 544.754 62.0959 545.102 62.3382C545.448 62.5793 545.749 62.9658 545.966 63.5792L547.852 62.9115C547.525 61.9888 547.001 61.2233 546.244 60.6964C545.488 60.1707 544.584 59.9413 543.597 59.9413V61.9413ZM545.936 63.4751L546.752 66.9311L548.698 66.4715L547.882 63.0155L545.936 63.4751ZM620.482 73.8053H621.482V73.4323L621.237 73.1504L620.482 73.8053ZM616.402 70.7813L616.03 71.7098L616.037 71.7126L616.402 70.7813ZM604.018 73.7093L603.211 73.1188L603.208 73.1224L604.018 73.7093ZM601.858 78.6533L600.888 78.4072L600.888 78.4072L601.858 78.6533ZM603.49 97.5173L602.651 98.0615L602.656 98.0694L602.661 98.0772L603.49 97.5173ZM606.37 100.109L605.933 101.009L605.943 101.014L605.954 101.019L606.37 100.109ZM615.97 99.4853L615.468 98.6203L615.46 98.6247L615.97 99.4853ZM620.482 95.5493L621.251 96.1881L621.482 95.9103V95.5493H620.482ZM633.73 38.8613H634.73V37.8613H633.73V38.8613ZM633.73 110.429V111.429H634.73V110.429H633.73ZM622.306 108.125L621.337 108.373L621.343 108.398L621.351 108.424L622.306 108.125ZM621.202 103.805L622.171 103.558L621.712 101.762L620.463 103.132L621.202 103.805ZM618.034 106.781L617.409 106L617.403 106.005L617.398 106.009L618.034 106.781ZM614.482 109.133L614.929 110.028L614.938 110.023L614.947 110.019L614.482 109.133ZM592.498 104.573L591.692 105.166L591.697 105.172L591.702 105.179L592.498 104.573ZM588.754 96.6053L589.715 96.3306L588.754 96.6053ZM588.898 75.5813L587.946 75.2737L587.943 75.2825L588.898 75.5813ZM593.218 67.3733L593.996 68.0007L593.996 68.0006L593.218 67.3733ZM599.938 61.9493L600.385 62.8437L600.385 62.8437L599.938 61.9493ZM615.442 61.1813L615.04 62.0971L615.046 62.0996L615.442 61.1813ZM620.482 64.4453L619.807 65.1831L621.482 66.7156V64.4453H620.482ZM620.482 38.8613V37.8613H619.482V38.8613H620.482ZM621.237 73.1504C619.905 71.6129 618.417 70.4961 616.766 69.8501L616.037 71.7126C617.33 72.2186 618.563 73.1177 619.726 74.4603L621.237 73.1504ZM616.773 69.8528C615.209 69.2272 613.546 68.9173 611.794 68.9173V70.9173C613.305 70.9173 614.715 71.1835 616.03 71.7098L616.773 69.8528ZM611.794 68.9173C610.064 68.9173 608.462 69.2467 607.005 69.922L607.846 71.7366C609.013 71.1959 610.323 70.9173 611.794 70.9173V68.9173ZM607.005 69.922C605.521 70.6097 604.258 71.6875 603.211 73.1188L604.825 74.2998C605.697 73.1072 606.706 72.265 607.846 71.7366L607.005 69.922ZM603.208 73.1224C602.186 74.5316 601.422 76.3052 600.888 78.4072L602.827 78.8995C603.317 76.9695 603.993 75.4471 604.827 74.2963L603.208 73.1224ZM600.888 78.4072C600.351 80.5255 600.09 83.0124 600.09 85.8533H602.09C602.09 83.1263 602.341 80.8132 602.827 78.8995L600.888 78.4072ZM600.09 85.8533C600.09 88.6505 600.301 91.062 600.736 93.0731L602.691 92.6496C602.295 90.8206 602.09 88.5601 602.09 85.8533H600.09ZM600.736 93.0731C601.169 95.0684 601.797 96.7447 602.651 98.0615L604.329 96.9731C603.647 95.922 603.091 94.4943 602.691 92.6496L600.736 93.0731ZM602.661 98.0772C603.545 99.385 604.633 100.377 605.933 101.009L606.807 99.2098C605.867 98.7534 605.035 98.0176 604.318 96.9575L602.661 98.0772ZM605.954 101.019C607.219 101.597 608.611 101.877 610.114 101.877V99.8773C608.864 99.8773 607.76 99.6455 606.785 99.1998L605.954 101.019ZM610.114 101.877C612.579 101.877 614.719 101.388 616.479 100.346L615.46 98.6247C614.084 99.4391 612.32 99.8773 610.114 99.8773V101.877ZM616.471 100.35C618.191 99.3532 619.782 97.9577 621.251 96.1881L619.712 94.9106C618.365 96.5329 616.949 97.7615 615.468 98.6203L616.471 100.35ZM621.482 95.5493V73.8053H619.482V95.5493H621.482ZM632.73 38.8613V110.429H634.73V38.8613H632.73ZM633.73 109.429H625.57V111.429H633.73V109.429ZM625.57 109.429C624.872 109.429 624.393 109.272 624.058 109.036C623.729 108.804 623.449 108.43 623.26 107.827L621.351 108.424C621.643 109.356 622.147 110.135 622.905 110.67C623.659 111.202 624.572 111.429 625.57 111.429V109.429ZM623.275 107.878L622.171 103.558L620.233 104.053L621.337 108.373L623.275 107.878ZM620.463 103.132C619.505 104.182 618.487 105.138 617.409 106L618.658 107.562C619.82 106.633 620.914 105.605 621.941 104.479L620.463 103.132ZM617.398 106.009C616.364 106.861 615.238 107.607 614.017 108.248L614.947 110.019C616.286 109.316 617.527 108.494 618.669 107.553L617.398 106.009ZM614.035 108.239C612.827 108.843 611.523 109.313 610.121 109.649L610.586 111.594C612.128 111.225 613.577 110.704 614.929 110.028L614.035 108.239ZM610.121 109.649C608.735 109.98 607.214 110.149 605.554 110.149V112.149C607.349 112.149 609.028 111.966 610.586 111.594L610.121 109.649ZM605.554 110.149C603.043 110.149 600.768 109.621 598.71 108.577L597.805 110.361C600.164 111.557 602.752 112.149 605.554 112.149V110.149ZM598.71 108.577C596.648 107.532 594.842 106.002 593.293 103.968L591.702 105.179C593.417 107.432 595.451 109.167 597.805 110.361L598.71 108.577ZM593.303 103.981C591.787 101.918 590.585 99.3753 589.715 96.3306L587.792 96.88C588.714 100.107 590.009 102.876 591.692 105.166L593.303 103.981ZM589.715 96.3306C588.85 93.3021 588.41 89.8134 588.41 85.8533H586.41C586.41 89.9573 586.865 93.6366 587.792 96.88L589.715 96.3306ZM588.41 85.8533C588.41 82.2638 588.893 78.9416 589.852 75.8801L587.943 75.2825C586.918 78.5571 586.41 82.0829 586.41 85.8533H588.41ZM589.849 75.8889C590.84 72.8227 592.226 70.1983 593.996 68.0007L592.439 66.746C590.497 69.1563 589.003 72.004 587.946 75.2738L589.849 75.8889ZM593.996 68.0006C595.763 65.8075 597.89 64.091 600.385 62.8437L599.491 61.0549C596.737 62.4317 594.384 64.3312 592.439 66.746L593.996 68.0006ZM600.385 62.8437C602.858 61.6073 605.615 60.9813 608.674 60.9813V58.9813C605.333 58.9813 602.266 59.6673 599.491 61.0549L600.385 62.8437ZM608.674 60.9813C611.269 60.9813 613.379 61.3684 615.04 62.0971L615.843 60.2655C613.857 59.3942 611.454 58.9813 608.674 58.9813V60.9813ZM615.046 62.0996C616.799 62.8551 618.384 63.8818 619.807 65.1831L621.157 63.7075C619.571 62.2568 617.797 61.1076 615.838 60.263L615.046 62.0996ZM621.482 64.4453V38.8613H619.482V64.4453H621.482ZM620.482 39.8613H633.73V37.8613H620.482V39.8613Z" fill="white"/>
</svg>
